<?xml version="1.0" encoding="utf-8"?>
<!-- Generator: Adobe Illustrator 22.1.0, SVG Export Plug-In . SVG Version: 6.00 Build 0)  -->
<svg version="1.1" xmlns="http://www.w3.org/2000/svg" xmlns:xlink="http://www.w3.org/1999/xlink" x="0px" y="0px"
	 viewBox="0 0 271.5 200" style="enable-background:new 0 0 271.5 200;" xml:space="preserve">
<style type="text/css">
	.st0{fill:#F0F6FD;}
	.st1{fill:#FFFFFF;}
	.st2{fill:#EAEBFB;}
	.st3{clip-path:url(#SVGID_2_);fill:#DFE0F3;}
	.st4{fill:#C7CBE8;}
	.st5{fill:#93B7FA;}
	.st6{fill:none;stroke:#E8E9F9;stroke-width:0.8987;stroke-linecap:round;stroke-linejoin:round;stroke-miterlimit:10;}
	.st7{fill:#E8E9F9;}
	.st8{fill:#C5C9E6;}
	.st9{fill:#3D415B;}
	.st10{fill:none;stroke:#3D415B;stroke-width:2.4961;stroke-miterlimit:10;}
	.st11{fill:#E3BC9A;}
	.st12{fill:#D8AC89;}
	.st13{fill:#7C6EF2;}
	.st14{fill:#303348;}
	.st15{fill:#282C3C;}
	.st16{fill:#583BF5;}
	.st17{fill:#DDB28D;}
	.st18{fill:#A9C9FA;}
	.st19{fill:#82A7E7;}
	.st20{fill:#8EB6EC;}
	.st21{fill:#ECF2F5;}
	.st22{fill:#29323D;}
	.st23{fill:#4747CC;}
	.st24{fill:none;stroke:#3D415B;stroke-width:2;stroke-miterlimit:10;}
</style>
<g id="BACKGROUND">
	<rect x="-710.3" y="-159.2" class="st0" width="500" height="500"/>
</g>
<g id="OBJECTS">
	<rect x="-1036" y="44.8" class="st1" width="280.6" height="194.7"/>
	<g>
		<g>
			<g>
				<path class="st2" d="M181.2,81.4c-34.5-20.8-50.8-84.9-104-46.6C23.9,73.1,46,151.7,97,170.7c51,19,116.7,8.3,135.1-27
					C263.7,83.3,204.3,95.4,181.2,81.4z"/>
				<g>
					<defs>
						<path id="SVGID_1_" d="M181.2,81.4c-34.5-20.8-50.8-84.9-104-46.6C23.9,73.1,46,151.7,97,170.7c51,19,116.7,8.3,135.1-27
							C263.7,83.3,204.3,95.4,181.2,81.4z"/>
					</defs>
					<clipPath id="SVGID_2_">
						<use xlink:href="#SVGID_1_"  style="overflow:visible;"/>
					</clipPath>
					<path class="st3" d="M41.3,155.5c0,0,29.4-29.5,78.5-15.5c49.1,14,78,2,71.9-72.2c0,0,69,9.6,60.2,58.7
						C241.2,186.1,102.5,208.8,41.3,155.5z"/>
				</g>
				<g>
					<g>
						<path class="st4" d="M105.7,34.3v28.8c0,2.5-2,4.5-4.5,4.5H39.9c-2.5,0-4.5-2-4.5-4.5V34.3c0-2.5,2-4.5,4.5-4.5h61.3
							C103.7,29.8,105.7,31.8,105.7,34.3z"/>
					</g>
					<g>
						<path class="st5" d="M105.7,34.3v2.5H35.4v-2.5c0-2.5,2-4.5,4.5-4.5h61.3C103.7,29.8,105.7,31.8,105.7,34.3z"/>
						<g>
							<circle class="st1" cx="39.3" cy="33.7" r="0.9"/>
							<path class="st1" d="M44,33.7c0,0.5-0.4,0.9-0.9,0.9c-0.5,0-0.9-0.4-0.9-0.9s0.4-0.9,0.9-0.9C43.6,32.7,44,33.1,44,33.7z"/>
							<path class="st1" d="M47.8,33.7c0,0.5-0.4,0.9-0.9,0.9c-0.5,0-0.9-0.4-0.9-0.9s0.4-0.9,0.9-0.9
								C47.4,32.7,47.8,33.1,47.8,33.7z"/>
						</g>
					</g>
					<path class="st1" d="M59,54.1H44.9c-0.5,0-0.8-0.4-0.8-0.8V41.8c0-0.5,0.4-0.8,0.8-0.8H59c0.5,0,0.8,0.4,0.8,0.8v11.4
						C59.9,53.7,59.5,54.1,59,54.1z"/>
					<g>
						<path class="st1" d="M95.9,60.2H44.1c-0.5,0-1-0.4-1-1l0,0c0-0.5,0.4-1,1-1h51.9c0.5,0,1,0.4,1,1l0,0
							C96.9,59.8,96.5,60.2,95.9,60.2z"/>
					</g>
					<g>
						<path class="st1" d="M95.9,52.7H64.5c-0.5,0-1-0.4-1-1l0,0c0-0.5,0.4-1,1-1h31.5c0.5,0,1,0.4,1,1l0,0
							C96.9,52.3,96.5,52.7,95.9,52.7z"/>
					</g>
					<g>
						<path class="st1" d="M84,45.7H64.5c-0.5,0-1-0.4-1-1l0,0c0-0.5,0.4-1,1-1H84c0.5,0,1,0.4,1,1l0,0C85,45.2,84.5,45.7,84,45.7z"
							/>
					</g>
				</g>
				<path class="st6" d="M6.4,89.4c0,0,1.1-1.3,1.8-1.9c1.3-1.1,2.7-3,7.4-1.6c0.4,0.1,0.7,0.3,1.1,0.4c0.4,0.2,1.7,0.2,3-0.9
					c2.1-1.6,2.9-2.9,5.7-2.9c3.3,0,3.8,4.1,6.4,5.1c1.6,0.7,5.9,1.3,6.8,1.6L6.4,89.4z"/>
				<path class="st7" d="M180.8,30.6c0,0,2.3-2.6,3.6-3.8c2.5-2.1,5.3-5.9,14.5-3.1c0.7,0.2,1.4,0.5,2.1,0.8
					c0.8,0.3,3.3,0.3,5.8-1.7c4.1-3.2,5.6-5.6,11.2-5.7c6.5-0.1,7.5,8,12.5,10c3.2,1.3,11.6,2.6,13.4,3.2L180.8,30.6z"/>
				<g>
					<path class="st1" d="M131,54.7l-0.5-1.3l-0.5,1.3c-0.4,1.1-1.3,2.1-2.6,2.6l0,0l0,0c1.3,0.6,2.2,1.5,2.6,2.6l0.5,1.3L131,60
						c0.4-1.1,1.3-2.1,2.6-2.6l0,0l0,0C132.3,56.8,131.4,55.8,131,54.7z"/>
					<path class="st1" d="M88.9,131l-0.5-1.3l-0.5,1.3c-0.4,1.1-1.3,2.1-2.6,2.6l0,0l0,0c1.3,0.6,2.2,1.5,2.6,2.6l0.5,1.3l0.5-1.3
						c0.4-1.1,1.3-2.1,2.6-2.6l0,0l0,0C90.2,133.1,89.3,132.1,88.9,131z"/>
					<path class="st1" d="M215.1,122.9l-0.3-0.9l-0.3,0.9c-0.3,0.7-0.9,1.4-1.7,1.7l0,0l0,0c0.8,0.4,1.4,1,1.7,1.7l0.3,0.9l0.3-0.9
						c0.3-0.7,0.9-1.4,1.7-1.7l0,0l0,0C216,124.3,215.3,123.7,215.1,122.9z"/>
					<path class="st1" d="M68.5,78.6l-0.3-0.9l-0.3,0.9c-0.3,0.7-0.9,1.4-1.7,1.7l0,0l0,0c0.8,0.4,1.4,1,1.7,1.7l0.3,0.9l0.3-0.9
						c0.3-0.7,0.9-1.4,1.7-1.7l0,0l0,0C69.4,80,68.8,79.4,68.5,78.6z"/>
				</g>
				<g>
					<path class="st5" d="M168.3,6.5h-29.2c-1.6,0-2.9,1.3-2.9,2.9v15.8c0,1.6,1.3,2.9,2.9,2.9h1.6v7.2l7.2-7.2h20.4
						c1.6,0,2.9-1.3,2.9-2.9V9.4C171.1,7.8,169.9,6.5,168.3,6.5z"/>
					<g>
						<path class="st1" d="M143.2,21.9h6.9c0.5,0,1,0.4,1,1l0,0c0,0.5-0.4,1-1,1h-6.9c-0.5,0-1-0.4-1-1l0,0
							C142.2,22.4,142.6,21.9,143.2,21.9z"/>
					</g>
					<g>
						<path class="st1" d="M143.2,17.1h12.7c0.5,0,1,0.4,1,1l0,0c0,0.5-0.4,1-1,1h-12.7c-0.5,0-1-0.4-1-1l0,0
							C142.2,17.5,142.6,17.1,143.2,17.1z"/>
					</g>
					<g>
						<path class="st1" d="M143.2,12.4H165c0.5,0,1,0.4,1,1l0,0c0,0.5-0.4,1-1,1h-21.8c-0.5,0-1-0.4-1-1l0,0
							C142.2,12.9,142.6,12.4,143.2,12.4z"/>
					</g>
				</g>
				<g>
					<path class="st8" d="M150.2,141.8H184c6.8,0,12.5-5.1,13.2-11.8l4.9-50.7h-33.8l-0.7,29.4L150.2,141.8z"/>
					<g>
						<path class="st9" d="M150.2,141.2c8.7-0.3,17.4-0.5,26-0.6l6.5-0.1c0.5,0,1.1,0,1.6,0c0.5,0,1-0.1,1.5-0.1
							c1-0.1,1.9-0.4,2.8-0.8c3.6-1.5,6.4-4.9,7.1-8.8c0.2-0.9,0.3-2,0.4-3.1l0.3-3.2l0.6-6.5c0.4-4.3,0.9-8.6,1.3-13
							c0.9-8.6,1.9-17.3,2.9-25.9c0.1-0.4,0.4-0.7,0.9-0.7c0.4,0,0.7,0.4,0.7,0.8c-0.6,8.7-1.3,17.3-2.1,26c-0.4,4.3-0.7,8.7-1.2,13
							l-0.6,6.5l-0.3,3.2c-0.1,1.1-0.2,2.1-0.4,3.4c-0.9,4.7-4.2,8.9-8.7,10.6c-1.1,0.5-2.3,0.8-3.4,0.9c-0.6,0.1-1.2,0.1-1.8,0.1
							c-0.6,0-1.1,0-1.7,0l-6.5-0.1c-8.7-0.1-17.4-0.3-26-0.6c-0.3,0-0.5-0.3-0.5-0.6C149.7,141.5,149.9,141.3,150.2,141.2z"/>
					</g>
					<line class="st10" x1="169.5" y1="142.7" x2="169.5" y2="178.6"/>
				</g>
				<g>
					
						<rect x="66.9" y="109.2" transform="matrix(-1 -1.224647e-16 1.224647e-16 -1 242.7964 220.0509)" class="st9" width="108.9" height="1.7"/>
					<polygon class="st11" points="163,185.3 164.2,189.5 158.6,191.2 156.8,186.1 					"/>
					<polygon class="st11" points="129,182.3 129,185.7 134,185.7 134.6,182.3 					"/>
					<g>
						<g>
							<path class="st12" d="M167.3,86l-7.5,18.6l-0.2,0.4c-0.4,1.1-1.5,1.8-2.6,1.8l-21.4-0.2c-0.9,0-1.6-0.7-1.6-1.6
								c0-0.8,0.6-1.4,1.3-1.5l21.2-3.1l-2.8,2.2l5.1-19.4c0.6-2.4,3.1-3.8,5.5-3.2c2.4,0.6,3.8,3.1,3.2,5.5
								C167.5,85.7,167.4,85.9,167.3,86z"/>
							<path class="st12" d="M137.9,103.2l-7.3-0.2c-1.8,0-3.3,1.6-3.3,3.6v0H138L137.9,103.2z"/>
						</g>
						<g>
							<path class="st13" d="M155.5,88.3l11.7,2.9l1.9-10.4c0.5-2.8-1.4-5.5-4.3-5.9l0,0c-2.4-0.3-4.8,1-5.6,3.3L155.5,88.3z"/>
						</g>
					</g>
					<path class="st14" d="M167.6,108.6l-36.1,18.3c-3.4,1.7-5.4,5.2-5.2,9l2.7,46.4h5.5l7.5-49.6l28.1-19.7L167.6,108.6z"/>
					<path class="st15" d="M161.2,45.3c0,0,10-3.4,15.3,6.1c0.3,0.6,0.6,1.1,1.1,1.6c1.1,1.3,3.3,3.6,5.8,4.3
						c9.8,3,15.9,21.5-3.5,23.1c-24.3,2.1-31.2-2.7-27.8-12.4c2.5-6.9,0.3-11.8,0.3-11.8L161.2,45.3z"/>
					<path class="st16" d="M169.2,70l-5.2,2.3c-3.1,1.4-5.1,4.5-5,7.8c0.1,6.8,1.6,23.7,7.4,30.2h17.6c2.7-12,1.2-30.4,1.2-30.4
						c0.2-4.5-3.1-8.4-7.6-9L169.2,70z"/>
					<g>
						<g>
							<g>
								<path class="st17" d="M169.7,75.6L169.7,75.6c-1.8,0.2-3.5-1.1-3.7-2.9l-1.4-11.2l6.7-0.8l1.4,11.1
									C172.9,73.7,171.6,75.4,169.7,75.6z"/>
								<path class="st11" d="M164.2,69.9l-0.3,0c-4.5,0.6-8.5-2.6-9.1-7l-1.3-9.7l16.4-2.1l1.3,9.7
									C171.8,65.2,168.6,69.3,164.2,69.9z"/>
							</g>
							<path class="st15" d="M171.7,57l-1.4,2.9c0,0-1.9,1.6-2.4-2.4c-0.4-3.4-2.9-2.8-2.9-2.8s-8.5,6.5-13.6,2
								c-4-3.5,2.4-9.9,9.8-11.4l9.6,4.2L171.7,57z"/>
							<path class="st11" d="M169.4,60.1c0.2,1.5,1.5,2.5,3,2.4c1.5-0.2,2.5-1.5,2.4-3c-0.2-1.5-1.5-2.5-3-2.4
								C170.2,57.2,169.2,58.6,169.4,60.1z"/>
							<path class="st1" d="M171.6,61c0,0.3,0.3,0.5,0.5,0.4c0.3,0,0.5-0.3,0.4-0.5c0-0.3-0.3-0.5-0.5-0.4
								C171.7,60.5,171.5,60.7,171.6,61z"/>
						</g>
						<path class="st1" d="M157.7,65.2l4.6-1c0,0,0.2,2-2.3,2.4C158,66.8,157.7,65.2,157.7,65.2z"/>
					</g>
					<path class="st9" d="M183.9,110.4h-17.6l-28.1,17c-3.3,2-4.6,6.1-3.1,9.7l21.6,49l6.2-0.7l-11.6-47.3
						c9.7-0.4,27.8-1.9,32.5-7.1C191.9,122,183.9,110.4,183.9,110.4z"/>
					<g>
						<path class="st5" d="M124.1,79.7l10,26.9h-32.6l-9.3-25.4c-0.3-0.8,0.3-1.6,1.1-1.6H124.1z"/>
						<path class="st18" d="M124.1,79.7h1.6c0.8,0,1.6,0.5,1.9,1.3l9.4,25.6h-2.9L124.1,79.7z"/>
						<path class="st19" d="M104,109.2h30.1v-2.6h-32.5v0.2C101.6,108.1,102.7,109.2,104,109.2z"/>
						<path class="st20" d="M134.1,109.2h20.1c0.7,0,1.3-0.6,1.3-1.3l0,0c0-0.7-0.6-1.3-1.3-1.3h-20.1V109.2z"/>
						<path class="st21" d="M115.9,93c0.6,1.9-0.1,3.8-1.7,4.3c-1.5,0.5-3.3-0.6-3.9-2.4c-0.6-1.9,0.1-3.8,1.7-4.3
							C113.5,90.1,115.3,91.2,115.9,93z"/>
					</g>
					<g>
						<g>
							<path class="st11" d="M181.1,85.5l-7.5,18.9l-0.2,0.4c-0.4,1.1-1.5,1.8-2.7,1.8l-21.4-0.1c-0.9,0-1.6-0.7-1.6-1.6
								c0-0.8,0.6-1.4,1.4-1.6l21.2-3.1l-2.8,2.2l5.1-19.7c0.6-2.4,3.1-3.9,5.5-3.3c2.4,0.6,3.9,3.1,3.3,5.5
								C181.2,85.2,181.1,85.4,181.1,85.5z"/>
							<path class="st11" d="M151.6,103l-7.3-0.2c-1.8,0-3.3,1.7-3.3,3.7l0,0h10.7L151.6,103z"/>
						</g>
						<g>
							<path class="st13" d="M169.2,87.9l11.7,2.9l1.9-10.6c0.5-2.9-1.4-5.6-4.3-6l0,0c-2.4-0.4-4.8,1-5.6,3.3L169.2,87.9z"/>
						</g>
					</g>
					<path class="st22" d="M154.9,187.2l-2.7,2.7l-6.1,1.5c-0.6,0.2-1.1,0.6-1.4,1.2l-0.3,0.9c-0.2,0.4,0.2,0.9,0.6,0.9l19.8-0.5
						c0.6,0,1.1-0.6,1.1-1.2l-1.6-5.6l-3,0.7c-1,0.3-2.1,0.2-3-0.3l-1.1-0.6C156.5,186.5,155.5,186.6,154.9,187.2z"/>
					<path class="st22" d="M126.5,183.3l-2.7,2.7l-6.1,1.5c-0.6,0.2-1.1,0.6-1.4,1.2l-0.3,0.9c-0.2,0.4,0.2,0.9,0.6,0.9l17.9-0.4
						c0.6,0,1.1-0.6,1.1-1.2l-0.5-5.7l-2.2,0.7c-1,0.3-2.1,0.2-3-0.3l-1.1-0.6C128.1,182.6,127.1,182.7,126.5,183.3z"/>
				</g>
				<g>
					<path class="st23" d="M210.3,67.4h50.3c1.7,0,3.1-1.4,3.1-3.1V50.1c0-1.7-1.4-3.1-3.1-3.1h-50.3c-1.7,0-3.1,1.4-3.1,3.1v14.3
						C207.2,66,208.6,67.4,210.3,67.4z"/>
					<g>
						<path class="st1" d="M246.1,63h10.4c0.5,0,1-0.4,1-1v-9.8c0-0.5-0.4-1-1-1h-10.4c-0.5,0-1,0.4-1,1v9.8
							C245.1,62.6,245.6,63,246.1,63z"/>
						<g>
							<path class="st1" d="M214.2,53.8H241c0.5,0,0.8-0.4,0.8-0.8l0,0c0-0.5-0.4-0.8-0.8-0.8h-26.8c-0.5,0-0.8,0.4-0.8,0.8l0,0
								C213.3,53.4,213.7,53.8,214.2,53.8z"/>
							<g>
								<path class="st1" d="M231.7,58h9.4c0.5,0,0.8-0.4,0.8-0.8v0c0-0.5-0.4-0.8-0.8-0.8h-9.4c-0.5,0-0.8,0.4-0.8,0.8v0
									C230.8,57.6,231.2,58,231.7,58z"/>
								<path class="st1" d="M214.2,58h11.2c0.5,0,0.8-0.4,0.8-0.8v0c0-0.5-0.4-0.8-0.8-0.8h-11.2c-0.5,0-0.8,0.4-0.8,0.8v0
									C213.3,57.6,213.7,58,214.2,58z"/>
							</g>
							<path class="st1" d="M220.9,62.3H241c0.5,0,0.8-0.4,0.8-0.8l0,0c0-0.5-0.4-0.8-0.8-0.8h-20.1c-0.5,0-0.8,0.4-0.8,0.8l0,0
								C220.1,61.9,220.4,62.3,220.9,62.3z"/>
						</g>
					</g>
				</g>
				<g>
					<path class="st5" d="M85.2,101c0,0,8.3,0,6.6-8.5C91.7,92.5,83,93.4,85.2,101z"/>
					<path class="st5" d="M84.1,100.6c0,0-8.4,0-6.6-8.6C77.5,92,86.3,92.8,84.1,100.6z"/>
					<path class="st19" d="M84.5,100.6c0,0-6.1-6.2,1.1-11.6C85.6,89,91.4,96.2,84.5,100.6z"/>
					<polygon class="st16" points="91.2,99.9 77.8,99.9 79.9,109.2 88.9,109.2 					"/>
				</g>
			</g>
			<line class="st24" x1="117.8" y1="110.9" x2="117.8" y2="176.5"/>
		</g>
	</g>
</g>
<g id="DESIGNED_BY_FREEPIK">
</g>
</svg>
