<?xml version="1.0" encoding="iso-8859-1"?>
<!-- Generator: Adobe Illustrator 19.0.0, SVG Export Plug-In . SVG Version: 6.00 Build 0)  -->
<svg version="1.1" id="Capa_1" xmlns="http://www.w3.org/2000/svg" xmlns:xlink="http://www.w3.org/1999/xlink" x="0px" y="0px"
	 viewBox="0 0 512 512" style="enable-background:new 0 0 512 512;" xml:space="preserve">
<path style="fill:#FFFFFF;" d="M10,181.968v280c0,22.091,17.909,40,40,40h412c22.091,0,40-17.909,40-40v-280L280.703,18.244
	c-14.679-10.86-34.728-10.86-49.407,0L10,181.968z"/>
<path style="fill:#FE8F8D;" d="M328.473,355.495H183.527L10,181.968v280c0,22.091,17.909,40,40,40h412c22.091,0,40-17.909,40-40
	v-280L328.473,355.495z"/>
<path style="fill:#FF5D5D;" d="M306.973,333.995c-28.151-28.151-73.794-28.151-101.945,0l-166.34,166.34
	c3.588,1.056,7.382,1.633,11.312,1.633h412c3.93,0,7.724-0.577,11.312-1.633L306.973,333.995z"/>
<path d="M297.41,457.968c2.64,0,5.21-1.07,7.07-2.93c1.86-1.86,2.93-4.44,2.93-7.07s-1.07-5.21-2.93-7.07
	c-1.86-1.86-4.43-2.93-7.07-2.93c-2.63,0-5.21,1.07-7.07,2.93c-1.86,1.86-2.93,4.44-2.93,7.07s1.07,5.21,2.93,7.07
	S294.78,457.968,297.41,457.968z"/>
<path d="M311.802,265.968H256c-47.36,0-85.891-38.53-85.891-85.891v-1.162c0-47.36,38.53-85.891,85.891-85.891
	s85.891,38.53,85.891,85.891v18.423c0,17.552-14.279,31.831-31.831,31.831s-31.831-14.279-31.831-31.831v-20.81
	c0-14.143-11.506-25.648-25.648-25.648c-15.411,0-27.948,12.538-27.948,27.948s12.538,27.948,27.948,27.948h14.301
	c5.523,0,10,4.477,10,10s-4.477,10-10,10H252.58c-26.439,0-47.948-21.509-47.948-47.948s21.509-47.948,47.948-47.948
	c25.17,0,45.648,20.478,45.648,45.648v20.81c0,6.523,5.308,11.831,11.831,11.831s11.831-5.308,11.831-11.831v-18.423
	c0-36.332-29.559-65.891-65.891-65.891s-65.891,29.559-65.891,65.891v1.162c0,36.332,29.559,65.891,65.891,65.891h55.802
	c5.523,0,10,4.477,10,10S317.325,265.968,311.802,265.968z"/>
<path d="M454,388.058c-2.63,0-5.21-1.07-7.07-2.93c-1.86-1.86-2.93-4.44-2.93-7.07s1.07-5.21,2.93-7.07
	c1.86-1.86,4.44-2.93,7.07-2.93s5.21,1.07,7.07,2.93c1.86,1.86,2.93,4.44,2.93,7.07s-1.07,5.21-2.93,7.07
	C459.21,386.988,456.63,388.058,454,388.058z"/>
<path d="M507.948,173.929L286.651,10.205c-18.334-13.564-42.969-13.564-61.302,0L4.052,173.929C1.503,175.815,0,178.798,0,181.968
	v280c0,27.57,22.43,50,50,50h412c27.57,0,50-22.43,50-50v-280C512,178.798,510.497,175.815,507.948,173.929z M237.245,26.283
	c11.218-8.3,26.293-8.3,37.511,0l211.966,156.82l-158.25,158.25l-14.429-14.429c-32.005-32.005-84.082-32.005-116.087,0
	l-14.429,14.429L25.278,183.104L237.245,26.283z M36.983,487.897c-0.241,0.241-0.466,0.491-0.677,0.75
	C26.634,483.661,20,473.578,20,461.968V206.111l149.385,149.385L36.983,487.897z M61.197,491.968l34-34H259c5.523,0,10-4.477,10-10
	s-4.477-10-10-10H115.197l28-28h73.976c5.523,0,10-4.477,10-10s-4.477-10-10-10h-53.976l27.397-27.397
	c0.001-0.001,0.003-0.003,0.004-0.004s0.003-0.003,0.004-0.004l21.496-21.496c24.208-24.208,63.596-24.208,87.804,0l21.496,21.496
	c0.001,0.001,0.002,0.003,0.004,0.004s0.003,0.003,0.004,0.004l129.397,129.397H61.197z M492,461.968
	c0,11.61-6.634,21.693-16.306,26.678c-0.211-0.258-0.437-0.509-0.677-0.75l-132.402-132.4L444,254.111v83.027
	c0,5.523,4.477,10,10,10s10-4.477,10-10V234.111l28-28V461.968z"/>
<g>
</g>
<g>
</g>
<g>
</g>
<g>
</g>
<g>
</g>
<g>
</g>
<g>
</g>
<g>
</g>
<g>
</g>
<g>
</g>
<g>
</g>
<g>
</g>
<g>
</g>
<g>
</g>
<g>
</g>
</svg>
