<?xml version="1.0" encoding="utf-8"?>
<!-- Generator: Adobe Illustrator 22.1.0, SVG Export Plug-In . SVG Version: 6.00 Build 0)  -->
<svg version="1.1" xmlns="http://www.w3.org/2000/svg" xmlns:xlink="http://www.w3.org/1999/xlink" x="0px" y="0px"
	 viewBox="0 0 424.9 442.4" style="enable-background:new 0 0 424.9 442.4;" xml:space="preserve">
<style type="text/css">
	.st0{fill:#51B0F0;}
	.st1{opacity:0.75;}
	.st2{fill:none;stroke:#3598DB;stroke-width:1.7398;stroke-linecap:round;stroke-linejoin:round;stroke-miterlimit:10;}
	.st3{fill:#3598DB;}
	.st4{fill:#2474A7;}
	.st5{fill:#2984B7;}
	.st6{fill:#1D6A96;}
	.st7{fill:#74BA24;}
	.st8{fill:#60A00D;}
	.st9{fill:#152A3D;}
	.st10{fill:#0C1D2D;}
	.st11{fill:#112235;}
	.st12{fill:none;stroke:#112235;stroke-width:1.2327;stroke-miterlimit:10;}
	.st13{fill:#E54C3B;}
	.st14{fill:#D63C30;}
	.st15{fill:#F96155;}
	.st16{fill:#EFA207;}
	.st17{fill:#FABF31;}
	.st18{fill:#FFFFFF;}
	.st19{fill:#CAE1EA;}
	.st20{fill:#EBEFF1;}
	.st21{fill:#AFCFD8;}
	.st22{fill:#FFFEFF;}
	.st23{fill:#F9AD32;}
	.st24{fill:none;stroke:#F9F9F9;stroke-width:2.8751;stroke-linejoin:round;stroke-miterlimit:10;}
	.st25{font-family:'Titillium-Black';}
	.st26{font-size:21px;}
	.st27{fill:none;stroke:#51B0F0;stroke-width:1.0725;stroke-linecap:round;stroke-linejoin:round;}
	.st28{fill:none;stroke:#51B0F0;stroke-width:1.0725;stroke-linecap:round;stroke-linejoin:round;stroke-dasharray:3.9212,3.9212;}
	.st29{fill:none;stroke:#51B0F0;stroke-width:1.0725;stroke-linecap:round;stroke-linejoin:round;stroke-dasharray:3.6545,3.6545;}
	.st30{fill:none;stroke:#51B0F0;stroke-width:1.0725;stroke-linecap:round;stroke-linejoin:round;stroke-dasharray:3.9744,3.9744;}
	.st31{fill:none;stroke:#51B0F0;stroke-width:1.0725;stroke-linecap:round;stroke-linejoin:round;stroke-dasharray:4.3063,4.3063;}
	
		.st32{fill:none;stroke:#51B0F0;stroke-width:1.0725;stroke-linecap:round;stroke-linejoin:round;stroke-miterlimit:10;stroke-dasharray:3.7539;}
</style>
<g id="Background">
	<rect x="-603.1" y="-23.8" class="st0" width="500" height="500"/>
</g>
<g id="Objects">
	<g>
		<g class="st1">
			<g>
				<polygon class="st2" points="6.3,262.6 58.9,369.2 185.7,436.7 308.5,413.7 397.5,330.1 419.1,197.9 365.2,81.8 247.8,22.5 
					108.8,45.4 22.5,156 				"/>
				<polyline class="st2" points="95.3,330.1 6.3,262.6 58.9,271.7 397.5,330.1 319.8,347.8 				"/>
				<polyline class="st2" points="124.7,161.6 137,285.2 365.2,81.8 360.3,186.8 				"/>
				<polyline class="st2" points="84.1,229.6 22.5,156 267.1,169.3 108.8,45.4 179.4,164.5 196.6,114.1 				"/>
				<polyline class="st2" points="58.9,369.2 137,285.2 161.4,360.9 185.7,436.7 254.6,305.4 250.1,360.9 245,425.6 				"/>
				<polygon class="st2" points="308.5,413.7 283.9,310.5 248.4,382.6 				"/>
				<polyline class="st2" points="58.9,271.7 124.7,161.6 208.2,221.7 				"/>
				<line class="st2" x1="6.3" y1="262.6" x2="84.1" y2="229.6"/>
				<polygon class="st2" points="419.1,197.9 355.7,322.9 267.1,169.3 				"/>
				<line class="st2" x1="283.9" y1="310.5" x2="347.8" y2="376.8"/>
				<line class="st2" x1="315.8" y1="253.9" x2="419.1" y2="197.9"/>
				<polyline class="st2" points="371.1,223.9 267.1,169.3 229.9,253.9 				"/>
				<line class="st2" x1="392.4" y1="250.5" x2="315.8" y2="253.9"/>
				<line class="st2" x1="321.8" y1="120.5" x2="360.3" y2="186.8"/>
				<polyline class="st2" points="254.6,305.4 161.4,360.9 95.3,330.1 185.7,436.7 				"/>
				<polyline class="st2" points="137,285.2 301.8,229.6 283.9,311.2 				"/>
				<polyline class="st2" points="196.6,30.9 196.6,114.1 301.8,137.5 279.3,89.6 247.8,22.5 196.6,114.1 				"/>
				<line class="st2" x1="365.2" y1="81.8" x2="275.7" y2="81.8"/>
				<polyline class="st2" points="22.5,156 129.3,80 124.7,161.6 				"/>
				<line class="st2" x1="229.9" y1="253.9" x2="283.9" y2="311.2"/>
				<line class="st2" x1="161.4" y1="360.9" x2="221.4" y2="368.7"/>
				<line class="st2" x1="124.7" y1="161.6" x2="91" y2="107.3"/>
			</g>
			<g>
				<path class="st3" d="M64.7,368.7c0-3.2-2.6-5.8-5.8-5.8c-3.2,0-5.8,2.6-5.8,5.8c0,3.2,2.6,5.8,5.8,5.8
					C62.1,374.5,64.7,371.9,64.7,368.7z"/>
				<path class="st3" d="M191.5,436.7c0-3.2-2.6-5.8-5.8-5.8c-3.2,0-5.8,2.6-5.8,5.8c0,3.2,2.6,5.8,5.8,5.8
					C188.9,442.4,191.5,439.8,191.5,436.7z"/>
				<path class="st3" d="M101,329.8c0-3.2-2.6-5.8-5.8-5.8c-3.2,0-5.8,2.6-5.8,5.8c0,3.2,2.6,5.8,5.8,5.8
					C98.4,335.5,101,333,101,329.8z"/>
				<path class="st3" d="M64.7,271.7c0-3.2-2.6-5.8-5.8-5.8c-3.2,0-5.8,2.6-5.8,5.8c0,3.2,2.6,5.8,5.8,5.8
					C62.1,277.5,64.7,274.9,64.7,271.7z"/>
				<path class="st3" d="M167.7,360.9c0-3.2-2.6-5.8-5.8-5.8c-3.2,0-5.8,2.6-5.8,5.8c0,3.2,2.6,5.8,5.8,5.8
					C165.1,366.7,167.7,364.1,167.7,360.9z"/>
				<path class="st3" d="M227.1,368.7c0-3.2-2.6-5.8-5.8-5.8c-3.2,0-5.8,2.6-5.8,5.8c0,3.2,2.6,5.8,5.8,5.8
					C224.6,374.5,227.1,371.9,227.1,368.7z"/>
				<path class="st3" d="M260.4,305.4c0-3.2-2.6-5.8-5.8-5.8c-3.2,0-5.8,2.6-5.8,5.8c0,3.2,2.6,5.8,5.8,5.8
					C257.8,311.2,260.4,308.6,260.4,305.4z"/>
				<path class="st3" d="M142.8,285.2c0-3.2-2.6-5.7-5.7-5.7c-3.2,0-5.8,2.6-5.8,5.7c0,3.2,2.6,5.8,5.8,5.8
					C140.2,290.9,142.8,288.3,142.8,285.2z"/>
				<path class="st3" d="M12.1,262.6c0-3.2-2.6-5.8-5.8-5.8c-3.2,0-5.8,2.6-5.8,5.8c0,3.2,2.6,5.8,5.8,5.8
					C9.5,268.4,12.1,265.8,12.1,262.6z"/>
				<path class="st3" d="M28.2,156c0-3.2-2.6-5.8-5.8-5.8c-3.2,0-5.8,2.6-5.8,5.8c0,3.2,2.6,5.8,5.8,5.8
					C25.7,161.8,28.2,159.2,28.2,156z"/>
				<path class="st3" d="M89.8,229.6c0-3.2-2.6-5.8-5.8-5.8c-3.2,0-5.8,2.6-5.8,5.8c0,3.2,2.6,5.8,5.8,5.8
					C87.3,235.3,89.8,232.8,89.8,229.6z"/>
				<path class="st3" d="M130.5,161.6c0-3.2-2.6-5.8-5.8-5.8c-3.2,0-5.8,2.6-5.8,5.8c0,3.2,2.6,5.8,5.8,5.8
					C127.9,167.3,130.5,164.8,130.5,161.6z"/>
				<path class="st3" d="M96.8,106.5c0-3.2-2.6-5.8-5.8-5.8c-3.2,0-5.8,2.6-5.8,5.8c0,3.2,2.6,5.8,5.8,5.8
					C94.2,112.3,96.8,109.7,96.8,106.5z"/>
				<path class="st3" d="M214,222.4c0-3.2-2.6-5.8-5.8-5.8c-3.2,0-5.8,2.6-5.8,5.8c0,3.2,2.6,5.8,5.8,5.8
					C211.4,228.1,214,225.6,214,222.4z"/>
				<path class="st3" d="M272.8,169.3c0-3.2-2.6-5.8-5.7-5.8c-3.2,0-5.8,2.6-5.8,5.8c0,3.2,2.6,5.8,5.8,5.8
					C270.2,175,272.8,172.4,272.8,169.3z"/>
				<path class="st3" d="M307.6,229.6c0-3.2-2.6-5.8-5.8-5.8c-3.2,0-5.8,2.6-5.8,5.8c0,3.2,2.6,5.8,5.8,5.8
					C305,235.3,307.6,232.8,307.6,229.6z"/>
				<path class="st3" d="M321.6,253.9c0-3.2-2.6-5.8-5.8-5.8c-3.2,0-5.8,2.6-5.8,5.8c0,3.2,2.6,5.7,5.8,5.7
					C319,259.6,321.6,257,321.6,253.9z"/>
				<path class="st3" d="M397.5,250.5c0-3.2-2.6-5.8-5.8-5.8c-3.2,0-5.8,2.6-5.8,5.8c0,3.2,2.6,5.8,5.8,5.8
					C395,256.3,397.5,253.7,397.5,250.5z"/>
				<path class="st3" d="M424.9,197.9c0-3.2-2.6-5.8-5.8-5.8c-3.2,0-5.8,2.6-5.8,5.8c0,3.2,2.6,5.8,5.8,5.8
					C422.3,203.6,424.9,201,424.9,197.9z"/>
				<path class="st3" d="M376.8,223.8c0-3.2-2.6-5.8-5.8-5.8c-3.2,0-5.8,2.6-5.8,5.8c0,3.2,2.6,5.8,5.8,5.8
					C374.3,229.6,376.8,227,376.8,223.8z"/>
				<path class="st3" d="M366,186.8c0-3.2-2.6-5.7-5.8-5.7c-3.2,0-5.8,2.6-5.8,5.7c0,3.2,2.6,5.8,5.8,5.8
					C363.4,192.6,366,190,366,186.8z"/>
				<path class="st3" d="M370.9,81.8c0-3.2-2.6-5.8-5.8-5.8c-3.2,0-5.8,2.6-5.8,5.8c0,3.2,2.6,5.8,5.8,5.8
					C368.3,87.6,370.9,85,370.9,81.8z"/>
				<path class="st3" d="M327.5,120.5c0-3.2-2.6-5.8-5.7-5.8c-3.2,0-5.8,2.6-5.8,5.8c0,3.2,2.6,5.8,5.8,5.8
					C324.9,126.3,327.5,123.7,327.5,120.5z"/>
				<path class="st3" d="M307.6,137.5c0-3.2-2.6-5.8-5.8-5.8c-3.2,0-5.8,2.6-5.8,5.8c0,3.2,2.6,5.8,5.8,5.8
					C305,143.3,307.6,140.7,307.6,137.5z"/>
				<path class="st3" d="M184.2,164.7c0-3.2-2.6-5.8-5.8-5.8c-3.2,0-5.8,2.6-5.8,5.8c0,3.2,2.6,5.8,5.8,5.8
					C181.6,170.4,184.2,167.9,184.2,164.7z"/>
				<path class="st3" d="M135.1,80c0-3.2-2.6-5.8-5.8-5.8c-3.2,0-5.8,2.6-5.8,5.8c0,3.2,2.6,5.8,5.8,5.8
					C132.5,85.7,135.1,83.2,135.1,80z"/>
				<path class="st3" d="M201.9,112.3c0-3.2-2.6-5.8-5.8-5.8c-3.2,0-5.8,2.6-5.8,5.8c0,3.2,2.6,5.8,5.8,5.8
					C199.3,118,201.9,115.4,201.9,112.3z"/>
				<path class="st3" d="M116.5,45.4c0-3.2-2.6-5.8-5.8-5.8c-3.2,0-5.8,2.6-5.8,5.8c0,3.2,2.6,5.8,5.8,5.8
					C114,51.2,116.5,48.6,116.5,45.4z"/>
				<path class="st3" d="M202.4,30.9c0-3.2-2.6-5.8-5.8-5.8c-3.2,0-5.8,2.6-5.8,5.8c0,3.2,2.6,5.8,5.8,5.8
					C199.8,36.7,202.4,34.1,202.4,30.9z"/>
				<path class="st3" d="M253.5,22.5c0-3.2-2.6-5.8-5.8-5.8c-3.2,0-5.8,2.6-5.8,5.8s2.6,5.8,5.8,5.8C251,28.2,253.5,25.7,253.5,22.5
					z"/>
				<path class="st3" d="M281.4,81.8c0-3.2-2.6-5.8-5.8-5.8c-3.2,0-5.8,2.6-5.8,5.8c0,3.2,2.6,5.8,5.8,5.8
					C278.9,87.6,281.4,85,281.4,81.8z"/>
				<path class="st3" d="M235.6,253.9c0-3.2-2.6-5.8-5.8-5.8c-3.2,0-5.8,2.6-5.8,5.8c0,3.2,2.6,5.7,5.8,5.7
					C233,259.6,235.6,257,235.6,253.9z"/>
				<path class="st3" d="M254.2,382.6c0-3.2-2.6-5.8-5.8-5.8c-3.2,0-5.8,2.6-5.8,5.8c0,3.2,2.6,5.8,5.8,5.8
					C251.6,388.3,254.2,385.7,254.2,382.6z"/>
				<path class="st3" d="M250.1,425.2c0-3.2-2.6-5.8-5.8-5.8c-3.2,0-5.8,2.6-5.8,5.8c0,3.2,2.6,5.8,5.8,5.8
					C247.6,430.9,250.1,428.3,250.1,425.2z"/>
				<path class="st3" d="M314.3,413.7c0-3.2-2.6-5.8-5.8-5.8c-3.2,0-5.8,2.6-5.8,5.8c0,3.2,2.6,5.8,5.8,5.8
					C311.7,419.5,314.3,416.9,314.3,413.7z"/>
				<path class="st3" d="M353.6,376.8c0-3.2-2.6-5.8-5.8-5.8c-3.2,0-5.7,2.6-5.7,5.8c0,3.2,2.6,5.8,5.7,5.8
					C351,382.6,353.6,380,353.6,376.8z"/>
				<path class="st3" d="M403.3,329.8c0-3.2-2.6-5.8-5.8-5.8s-5.8,2.6-5.8,5.8c0,3.2,2.6,5.8,5.8,5.8S403.3,333,403.3,329.8z"/>
				<path class="st3" d="M359.9,322.9c0-3.2-2.6-5.8-5.8-5.8c-3.2,0-5.8,2.6-5.8,5.8c0,3.2,2.6,5.8,5.8,5.8
					C357.3,328.6,359.9,326,359.9,322.9z"/>
				<path class="st3" d="M289.6,311.2c0-3.2-2.6-5.8-5.8-5.8c-3.2,0-5.8,2.6-5.8,5.8c0,3.2,2.6,5.8,5.8,5.8
					C287.1,316.9,289.6,314.4,289.6,311.2z"/>
			</g>
			<g>
				<path class="st3" d="M81.4,368.7c0-12.4-10.1-22.5-22.5-22.5c-12.4,0-22.5,10.1-22.5,22.5c0,12.4,10.1,22.5,22.5,22.5
					C71.3,391.2,81.4,381.1,81.4,368.7z"/>
				<path class="st3" d="M270.3,382.6c0-12.4-10.1-22.5-22.5-22.5c-12.4,0-22.5,10.1-22.5,22.5c0,12.4,10.1,22.5,22.5,22.5
					C260.2,405,270.3,395,270.3,382.6z"/>
				<path class="st3" d="M270.3,22.5c0-12.4-10.1-22.5-22.5-22.5c-12.4,0-22.5,10.1-22.5,22.5c0,12.4,10.1,22.5,22.5,22.5
					C260.2,45,270.3,34.9,270.3,22.5z"/>
				<path class="st3" d="M420,329.8c0-12.4-10.1-22.5-22.5-22.5c-12.4,0-22.5,10.1-22.5,22.5c0,12.4,10.1,22.5,22.5,22.5
					C410,352.3,420,342.2,420,329.8z"/>
				<path class="st3" d="M200.9,164.7c0-12.4-10.1-22.5-22.5-22.5c-12.4,0-22.5,10.1-22.5,22.5c0,12.4,10.1,22.5,22.5,22.5
					C190.8,187.2,200.9,177.1,200.9,164.7z"/>
				<path class="st3" d="M324.3,229.6c0-12.4-10.1-22.5-22.5-22.5c-12.4,0-22.5,10.1-22.5,22.5c0,12.4,10.1,22.5,22.5,22.5
					C314.3,252.1,324.3,242,324.3,229.6z"/>
				<path class="st3" d="M387.7,81.8c0-12.4-10.1-22.5-22.5-22.5c-12.4,0-22.5,10.1-22.5,22.5c0,12.4,10.1,22.5,22.5,22.5
					C377.6,104.3,387.7,94.3,387.7,81.8z"/>
				<path class="st3" d="M45,153.7c0-12.4-10.1-22.5-22.5-22.5C10.1,131.2,0,141.2,0,153.7c0,12.4,10.1,22.5,22.5,22.5
					C34.9,176.1,45,166.1,45,153.7z"/>
				<path class="st3" d="M159.5,285.2c0-12.4-10.1-22.5-22.5-22.5c-12.4,0-22.5,10.1-22.5,22.5c0,12.4,10.1,22.5,22.5,22.5
					C149.4,307.7,159.5,297.6,159.5,285.2z"/>
			</g>
		</g>
		<g>
			<g>
				<path class="st4" d="M69.8,221.7c0.3,78.8,64.4,142.4,143.2,142.1c78.8-0.3,142.4-64.4,142.1-143.2
					c-0.3-78.8-64.4-142.4-143.2-142.1C133.1,78.8,69.5,143,69.8,221.7z"/>
				<path class="st5" d="M209.5,91.9C149,92.1,97.2,128.7,75.7,180.6c17.5-58.8,71.8-101.8,136.3-102
					c78.8-0.3,142.9,63.3,143.2,142.1c0,2.2,0,4.5-0.1,6.7C351.2,151.7,287.4,91.6,209.5,91.9z"/>
				<path class="st6" d="M114,117.9c-10.9,20.2-17,43.4-16.9,68c0.3,78.8,64.4,142.4,143.2,142.1c38-0.1,72.4-15.1,97.9-39.4
					c-24,44.6-71,75-125.2,75.2c-78.8,0.3-142.9-63.3-143.2-142.1C69.6,180.9,86.6,144,114,117.9z"/>
				<path class="st7" d="M69.9,216.2c0-1,0.1-2,0.1-2.9c0-0.5,0.1-1,0.1-1.4c0.1-1,0.1-1.9,0.2-2.9c0-0.4,0.1-0.9,0.1-1.3
					c0.1-1.3,0.3-2.7,0.4-4c0,0,0-0.1,0-0.1c0.2-1.4,0.4-2.7,0.6-4.1c0.1-0.4,0.1-0.8,0.2-1.2c0.2-0.9,0.3-1.9,0.5-2.8
					c0.1-0.5,0.2-0.9,0.2-1.4c0.2-0.9,0.4-1.9,0.6-2.8c0.1-0.4,0.2-0.8,0.3-1.2c0.3-1.3,0.6-2.6,0.9-3.8c0,0,0-0.1,0-0.1
					c0.3-1.3,0.7-2.6,1.1-3.9c0.1-0.4,0.2-0.8,0.3-1.1c0.3-0.9,0.5-1.8,0.8-2.8c0.1-0.4,0.3-0.9,0.4-1.3c0.3-0.9,0.6-1.8,0.9-2.7
					c0.1-0.4,0.3-0.8,0.4-1.1c0.4-1.2,0.9-2.4,1.4-3.7c0,0,0,0,0-0.1c0.5-1.3,1-2.5,1.5-3.7c0.2-0.3,0.3-0.7,0.4-1
					c0.4-0.9,0.8-1.8,1.2-2.7c0.2-0.4,0.4-0.8,0.5-1.2c0.4-0.9,0.8-1.7,1.2-2.6c0.2-0.3,0.3-0.7,0.5-1c0.6-1.2,1.2-2.3,1.8-3.5
					c0,0,0,0,0,0c0.6-1.2,1.3-2.3,1.9-3.5c0.2-0.3,0.3-0.6,0.5-0.9c0.5-0.9,1-1.7,1.5-2.6c0.2-0.3,0.4-0.7,0.6-1
					c0.5-0.8,1-1.7,1.6-2.5c0.2-0.3,0.4-0.6,0.6-0.9c1.5-2.2,3-4.4,4.6-6.5c0.2-0.3,0.4-0.5,0.6-0.7c0.6-0.8,1.2-1.6,1.9-2.4
					c0.2-0.3,0.5-0.6,0.7-0.9c0.6-0.8,1.3-1.6,1.9-2.3c0.2-0.3,0.4-0.5,0.6-0.8c1.7-2,3.5-4,5.4-5.9c0.2-0.2,0.4-0.4,0.6-0.6
					c0.7-0.8,1.5-1.5,2.2-2.2c0.3-0.3,0.5-0.5,0.8-0.8c0.7-0.7,1.5-1.4,2.2-2.1c0.2-0.2,0.5-0.4,0.7-0.7c2-1.8,4-3.6,6-5.3
					c0.2-0.2,0.4-0.3,0.6-0.5c0.8-0.7,1.7-1.3,2.5-2c0.3-0.2,0.6-0.4,0.9-0.7c0.8-0.6,1.6-1.2,2.4-1.8c0.3-0.2,0.5-0.4,0.8-0.6
					c1.1-0.8,2.1-1.5,3.2-2.3c0,0,0,0,0,0c0,0-1.3,28.9,6.3,30.4c7.6,1.5,23.3-1.8,28.2,14.6c4.9,16.4,13,8.8,21.3,18.6
					c8.3,9.8,21.9,20.3,4.6,40.8c-17.3,20.5-29.5,3.1-34.7,10c-5.3,6.8,5.4,20.8-7.4,36.1c-12.8,15.4-24.7,7.6-31.6,20.2
					c-6.8,12.6-13.6,13.4-7.5,29.3c3.9,10.3,7.6,18.9,8.7,26.7c-3.8-3.2-7.5-6.7-10.9-10.3c0,0,0,0,0-0.1c-0.8-0.9-1.6-1.7-2.4-2.6
					c-0.1-0.1-0.2-0.2-0.3-0.3c-0.7-0.8-1.4-1.6-2.1-2.4c-0.1-0.1-0.3-0.3-0.4-0.5c-0.7-0.8-1.3-1.6-2-2.4c-0.1-0.2-0.3-0.4-0.4-0.5
					c-0.6-0.8-1.3-1.6-1.9-2.4c-0.1-0.2-0.3-0.4-0.4-0.5c-0.6-0.8-1.2-1.6-1.9-2.5c-0.1-0.2-0.2-0.3-0.3-0.5
					c-0.6-0.9-1.3-1.8-1.9-2.7c-0.1-0.1-0.1-0.2-0.2-0.3c-2.8-4.1-5.4-8.3-7.8-12.7c-0.1-0.2-0.2-0.4-0.3-0.6
					c-0.5-0.9-0.9-1.8-1.4-2.6c-0.1-0.3-0.3-0.6-0.4-0.9c-0.4-0.8-0.8-1.6-1.2-2.4c-0.2-0.3-0.3-0.7-0.5-1c-0.4-0.8-0.7-1.6-1.1-2.3
					c-0.2-0.4-0.3-0.7-0.5-1.1c-0.3-0.8-0.7-1.5-1-2.3c-0.2-0.4-0.3-0.7-0.5-1.1c-0.3-0.8-0.6-1.6-0.9-2.4c-0.2-0.4-0.3-0.7-0.4-1.1
					c-0.3-0.8-0.6-1.7-0.9-2.5c-0.1-0.3-0.2-0.7-0.4-1c-0.3-0.9-0.6-1.9-0.9-2.8c-0.1-0.2-0.2-0.5-0.2-0.7c-0.8-2.4-1.4-4.8-2.1-7.2
					c-0.1-0.3-0.1-0.6-0.2-0.9c-0.2-0.9-0.5-1.8-0.7-2.7c-0.1-0.4-0.2-0.8-0.3-1.3c-0.2-0.8-0.4-1.6-0.5-2.4
					c-0.1-0.5-0.2-0.9-0.3-1.4c-0.2-0.8-0.3-1.5-0.4-2.3c-0.1-0.5-0.2-1-0.3-1.5c-0.1-0.7-0.2-1.5-0.3-2.2c-0.1-0.5-0.1-1-0.2-1.6
					c-0.1-0.7-0.2-1.5-0.3-2.2c-0.1-0.5-0.1-1.1-0.2-1.6c-0.1-0.7-0.2-1.5-0.2-2.3c-0.1-0.5-0.1-1-0.1-1.5c-0.1-0.8-0.1-1.6-0.2-2.3
					c0-0.5-0.1-1-0.1-1.5c-0.1-0.9-0.1-1.7-0.1-2.6c0-0.4,0-0.8,0-1.3c0-1.3-0.1-2.6-0.1-3.9c0-1.4,0-2.8,0-4.2
					C69.8,217.1,69.9,216.7,69.9,216.2z"/>
				<path class="st8" d="M69.8,216.8c0-0.2,0-0.5,0-0.7c0-0.9,0.1-1.9,0.1-2.8c0-0.2,0-0.3,0-0.4c0-0.4,0.1-0.8,0.1-1.2
					c0.1-0.9,0.1-1.8,0.2-2.7c0-0.5,0.1-1,0.1-1.5c0.1-0.9,0.2-1.9,0.3-2.8c0.1-0.4,0.1-0.9,0.1-1.3c0.2-1.3,0.3-2.5,0.5-3.8
					c0.1-0.4,0.1-0.8,0.2-1.2c0.2-0.9,0.3-1.9,0.5-2.8c0.1-0.3,0.1-0.7,0.2-1c0-0.2,0.1-0.5,0.1-0.7c0.2-0.8,0.3-1.6,0.5-2.5
					c0-0.1,0-0.2,0.1-0.4c0.1-0.5,0.2-0.9,0.3-1.4c0.2-0.8,0.4-1.7,0.6-2.5c0.1-0.5,0.2-1,0.4-1.5c0.2-0.9,0.5-1.8,0.7-2.6
					c0.1-0.3,0.2-0.7,0.3-1c0.1-0.3,0.2-0.6,0.2-0.8c0.3-0.9,0.5-1.8,0.8-2.8c0.1-0.4,0.3-0.8,0.4-1.2c0-0.1,0-0.1,0.1-0.2
					c0.3-0.9,0.6-1.7,0.9-2.6c0.1-0.2,0.1-0.4,0.2-0.6c0.1-0.4,0.3-0.8,0.4-1.2c0.3-0.8,0.6-1.5,0.9-2.3c0.2-0.5,0.4-1.1,0.6-1.6
					c0.3-0.7,0.6-1.5,0.9-2.2c0.2-0.5,0.4-1,0.6-1.4c0-0.1,0.1-0.2,0.1-0.3c0.3-0.7,0.6-1.5,1-2.2c0.1-0.3,0.2-0.5,0.4-0.8
					c0.1-0.3,0.3-0.6,0.4-0.9c0.4-0.9,0.8-1.7,1.2-2.6c0.1-0.3,0.3-0.5,0.4-0.8c0.1-0.3,0.3-0.6,0.5-0.9c0.4-0.8,0.8-1.5,1.2-2.3
					c0.3-0.5,0.6-1,0.8-1.5c0.4-0.6,0.7-1.3,1.1-1.9c0.3-0.5,0.6-1.1,0.9-1.6c0.4-0.6,0.7-1.3,1.1-1.9c0.3-0.5,0.6-1,1-1.5
					c0.4-0.6,0.8-1.3,1.2-1.9c0.3-0.4,0.6-0.8,0.8-1.3c0.1-0.1,0.1-0.1,0.1-0.2c0.7-1.1,1.4-2.1,2.2-3.2c0.2-0.3,0.4-0.5,0.6-0.8
					c0.5-0.8,1.1-1.5,1.6-2.3c0.4-0.5,0.8-1,1.1-1.5c0.4-0.5,0.8-1.1,1.2-1.6c0.4-0.5,0.8-1,1.2-1.5c0.5-0.5,0.9-1.1,1.3-1.6
					c0.4-0.5,0.8-1,1.2-1.4c0.6-0.8,1.3-1.5,2-2.3c0.2-0.2,0.3-0.4,0.5-0.6c0.8-0.9,1.7-1.9,2.6-2.8c0.4-0.4,0.8-0.8,1.2-1.3
					c0.5-0.5,1-1,1.5-1.6c0.5-0.4,0.9-0.9,1.4-1.3c0.3-0.3,0.6-0.5,0.8-0.8c-10.9,20.2-17,43.4-16.9,67.9
					c0.1,30.8,10,59.2,26.6,82.4c-1.8,1.2-3.5,3-4.9,5.6c-6.8,12.6-13.6,13.4-7.5,29.3c3.9,10.3,7.6,18.9,8.7,26.7
					c-3.8-3.2-7.5-6.7-10.9-10.3c0,0,0,0,0,0c0,0,0,0,0,0c-0.8-0.9-1.6-1.7-2.4-2.6c-0.1-0.1-0.2-0.2-0.3-0.3
					c-0.7-0.8-1.4-1.6-2.1-2.4c-0.1-0.1-0.3-0.3-0.4-0.5c-0.6-0.8-1.3-1.6-1.9-2.3c-0.1-0.2-0.3-0.4-0.5-0.6
					c-0.6-0.8-1.2-1.6-1.9-2.4c-0.1-0.1-0.1-0.2-0.2-0.2c-0.1-0.1-0.2-0.2-0.2-0.3c-0.6-0.8-1.2-1.6-1.9-2.5
					c-0.1-0.1-0.2-0.3-0.3-0.4c0,0,0,0,0-0.1c-0.7-0.9-1.3-1.8-1.9-2.7c-0.1-0.1-0.1-0.2-0.2-0.3c-2.8-4.1-5.4-8.3-7.8-12.7
					c0-0.1-0.1-0.2-0.2-0.3c-0.1-0.1-0.1-0.2-0.2-0.3c-0.5-0.9-0.9-1.7-1.4-2.6c-0.1-0.3-0.3-0.6-0.4-0.9c-0.4-0.8-0.8-1.6-1.2-2.4
					c0-0.1-0.1-0.1-0.1-0.2c-0.1-0.3-0.3-0.5-0.4-0.8c-0.4-0.8-0.7-1.6-1.1-2.3c-0.2-0.4-0.3-0.7-0.5-1.1c-0.3-0.8-0.7-1.5-1-2.3
					c-0.2-0.4-0.3-0.7-0.5-1.1c-0.3-0.8-0.6-1.6-0.9-2.4c-0.1-0.2-0.2-0.5-0.3-0.7c-0.1-0.1-0.1-0.2-0.1-0.3
					c-0.3-0.8-0.6-1.7-0.9-2.5c-0.1-0.3-0.2-0.7-0.4-1c-0.3-0.9-0.6-1.9-0.9-2.8c-0.1-0.2-0.2-0.5-0.2-0.7c-0.8-2.4-1.4-4.8-2.1-7.2
					c-0.1-0.3-0.1-0.6-0.2-0.9c-0.2-0.9-0.5-1.8-0.7-2.7c0-0.2-0.1-0.4-0.1-0.6c-0.1-0.2-0.1-0.5-0.2-0.7c-0.2-0.8-0.3-1.6-0.5-2.4
					c-0.1-0.5-0.2-1-0.3-1.5c-0.2-0.7-0.3-1.5-0.4-2.2c-0.1-0.5-0.2-1-0.3-1.5c-0.1-0.7-0.2-1.4-0.4-2.2c-0.1-0.5-0.1-1.1-0.2-1.6
					c-0.1-0.7-0.2-1.5-0.3-2.2c-0.1-0.5-0.1-1.1-0.2-1.6c-0.1-0.7-0.2-1.5-0.2-2.2c0-0.5-0.1-0.9-0.1-1.4c0-0.1,0-0.1,0-0.2
					c-0.1-0.8-0.1-1.5-0.2-2.3c0-0.3,0-0.6-0.1-0.9c0-0.2,0-0.4,0-0.7c-0.1-0.9-0.1-1.7-0.1-2.6c0-0.4,0-0.8-0.1-1.3
					c0-1.3-0.1-2.6-0.1-3.9c0-1.4,0-2.8,0-4.2C69.8,217.3,69.9,217.1,69.8,216.8z"/>
				<path class="st7" d="M355.1,220.7c0.1,26.8-7.2,51.9-20,73.4c9.8-34,8-56-1.9-65c-9.9-9-17.3,21.2-34,5.2
					c-16.7-16.1,11.2-24-9.2-42c-20.5-18.1-31,3.1-41.6-14.3c-10.6-17.5,17.3-31.7,39.9-37.6c12.3-3.2,18.5-14,21.7-23.2
					C337.6,143,355,179.8,355.1,220.7z"/>
				<path class="st7" d="M260.7,229.3c-6.1-22.7-19-28.6-34.1-13.1c-15.1,15.5-21.2,0.4-33.9,20.1c-12.8,19.7-15.8,25,0.1,32.5
					c15.9,7.5,37.1,5.9,31.9,25.6c-5.2,19.7-6.6,42.4,15.2,23.4c21.9-19,47.5-24,37.6-51.7C267.5,238.4,260.7,229.3,260.7,229.3z"/>
				<path class="st7" d="M279,317.8c0,0,7.4-5.8,12.7-16.6c5.3-10.8,16.8-14,12.4-0.5c-4.4,13.5-18.4,30.5-29.6,32.1
					C263.3,334.5,268.4,325.6,279,317.8z"/>
				<path class="st7" d="M211.9,78.5c16.2-0.1,31.8,2.6,46.3,7.5l0,0c-8.2,11-12.7,23.1-28.1,20.2c-15.3-3-14.4-0.4-29.6,2.9
					c-15.2,3.3-7.8-11.6-19.3-17.9c-3.3-1.8-7-4.1-10.2-6.7C184.1,80.7,197.7,78.6,211.9,78.5z"/>
				<path class="st8" d="M171.2,346.1c7.6,0.7,11.4,6.8,17.4-4.6c6.1-11.4,15.8-12.9,24.4,9.2c2.5,6.4,4.5,10.4,6.2,13
					c-2,0.1-4.1,0.2-6.1,0.2c-18,0.1-35.2-3.2-51.1-9.2C164.3,350,166.9,345.7,171.2,346.1z"/>
			</g>
			<g>
				<path class="st9" d="M278.1,359.7v-10.1h-6.5c-0.4-1.5-1-2.9-1.8-4.3l4.6-4.6l-7.1-7.1l-4.6,4.6c-1.3-0.7-2.7-1.3-4.2-1.8v-6.5
					h-10.1v6.5c-1.5,0.4-2.9,1-4.2,1.8l-4.6-4.6l-7.1,7.1l4.6,4.6c-0.8,1.3-1.4,2.8-1.8,4.3h-6.5v10.1h6.5c0.4,1.5,1,2.9,1.8,4.3
					l-4.6,4.6l7.1,7.1l4.6-4.6c1.3,0.8,2.8,1.4,4.3,1.8v6.5h10.1v-6.5c1.5-0.4,2.9-1,4.3-1.8l4.6,4.6l7.1-7.1l-4.6-4.6
					c0.8-1.3,1.4-2.8,1.8-4.3H278.1z M253.4,363.7c-5,0-9.1-4.1-9.1-9.1c0-5,4.1-9.1,9.1-9.1c5,0,9.1,4.1,9.1,9.1
					C262.5,359.7,258.4,363.7,253.4,363.7z"/>
				<path class="st9" d="M297,388.8v-5.9h-3.8c-0.2-0.9-0.6-1.7-1-2.5l2.7-2.7l-4.2-4.2l-2.7,2.7c-0.8-0.4-1.6-0.8-2.5-1v-3.8h-5.9
					v3.8c-0.9,0.2-1.7,0.6-2.5,1l-2.7-2.7l-4.2,4.2l2.7,2.7c-0.4,0.8-0.8,1.6-1,2.5H268v5.9h3.8c0.2,0.9,0.6,1.7,1,2.5l-2.7,2.7
					l4.2,4.2l2.7-2.7c0.8,0.4,1.6,0.8,2.5,1v3.8h5.9v-3.8c0.9-0.2,1.7-0.6,2.5-1l2.7,2.7l4.2-4.2l-2.7-2.7c0.4-0.8,0.8-1.6,1-2.5
					H297z M282.5,390.8c-2.7,0-4.9-2.2-4.9-4.9c0-2.7,2.2-4.9,4.9-4.9c2.7,0,4.9,2.2,4.9,4.9C287.4,388.6,285.2,390.8,282.5,390.8z"
					/>
			</g>
			<g>
				<path class="st10" d="M231.1,102.3v-8.1h-5.2c-0.3-1.2-0.8-2.4-1.4-3.4l3.7-3.7l-5.7-5.7l-3.7,3.7c-1.1-0.6-2.2-1.1-3.4-1.4
					v-5.2h-8.1v5.2c-1.2,0.3-2.3,0.8-3.4,1.4l-3.7-3.7l-5.7,5.7l3.7,3.7c-0.6,1.1-1.1,2.2-1.4,3.4h-5.2v8.1h5.2
					c0.3,1.2,0.8,2.4,1.4,3.4l-3.7,3.7l5.7,5.7l3.7-3.7c1.1,0.6,2.2,1.1,3.4,1.4v5.2h8.1v-5.2c1.2-0.3,2.4-0.8,3.4-1.4l3.7,3.7
					l5.7-5.7l-3.7-3.7c0.6-1.1,1.1-2.2,1.4-3.4H231.1z M211.2,105.6c-4,0-7.3-3.3-7.3-7.3c0-4,3.3-7.3,7.3-7.3c4,0,7.3,3.3,7.3,7.3
					C218.6,102.3,215.3,105.6,211.2,105.6z"/>
				<path class="st10" d="M236.1,140v-4.8h-3.1c-0.2-0.7-0.5-1.4-0.8-2l2.2-2.2l-3.4-3.4l-2.2,2.2c-0.6-0.4-1.3-0.6-2-0.8V126h-4.8
					v3.1c-0.7,0.2-1.4,0.5-2,0.8l-2.2-2.2l-3.4,3.4l2.2,2.2c-0.4,0.6-0.6,1.3-0.8,2h-3.1v4.8h3.1c0.2,0.7,0.5,1.4,0.8,2l-2.2,2.2
					l3.4,3.4l2.2-2.2c0.6,0.4,1.3,0.6,2,0.8v3h4.8v-3c0.7-0.2,1.4-0.5,2-0.8l2.2,2.2l3.4-3.4l-2.2-2.2c0.4-0.6,0.6-1.3,0.8-2H236.1z
					 M224.5,141.5c-2.2,0-3.9-1.8-3.9-3.9c0-2.2,1.8-3.9,3.9-3.9c2.2,0,3.9,1.8,3.9,3.9C228.4,139.8,226.7,141.5,224.5,141.5z"/>
				<path class="st9" d="M214.8,126.1v-10.8h-6.9c-0.4-1.6-1.1-3.1-1.9-4.6l4.9-4.9l-7.6-7.6l-4.9,4.9c-1.4-0.8-2.9-1.4-4.5-1.9v-7
					H183v7c-1.6,0.4-3.1,1.1-4.5,1.9l-4.9-4.9l-7.6,7.6l4.9,4.9c-0.8,1.4-1.4,2.9-1.9,4.6H162v10.8h6.9c0.4,1.6,1.1,3.1,1.9,4.6
					l-4.9,4.9l7.6,7.6l4.9-4.9c1.4,0.8,3,1.5,4.6,1.9v6.9h10.8v-6.9c1.6-0.4,3.1-1.1,4.6-1.9l4.9,4.9l7.6-7.6l-4.9-4.9
					c0.8-1.4,1.4-3,1.9-4.6H214.8z M188.4,132.1c-6.3,0-11.4-5.1-11.4-11.4c0-6.3,5.1-11.4,11.4-11.4c6.3,0,11.4,5.1,11.4,11.4
					C199.8,127,194.7,132.1,188.4,132.1z"/>
			</g>
			<path class="st9" d="M169.3,369.9v-10.8h-6.9c-0.4-1.6-1.1-3.1-1.9-4.6l4.9-4.9l-7.6-7.6l-4.9,4.9c-1.4-0.8-2.9-1.4-4.5-1.9v-7
				h-10.8v7c-1.6,0.4-3.1,1.1-4.5,1.9L128,342l-7.6,7.6l4.9,4.9c-0.8,1.4-1.4,2.9-1.9,4.6h-6.9v10.8h6.9c0.4,1.6,1.1,3.1,1.9,4.6
				l-4.9,4.9l7.6,7.6l4.9-4.9c1.4,0.8,3,1.5,4.6,1.9v6.9h10.8V384c1.6-0.4,3.2-1.1,4.6-1.9l4.9,4.9l7.6-7.6l-4.9-4.9
				c0.8-1.4,1.4-3,1.9-4.6H169.3z M142.8,375.9c-6.3,0-11.4-5.1-11.4-11.4c0-6.3,5.1-11.4,11.4-11.4c6.3,0,11.4,5.1,11.4,11.4
				C154.2,370.8,149.1,375.9,142.8,375.9z"/>
			<g>
				<g>
					<g>
						<path class="st11" d="M148,238.9c0,2-1.7,3.7-3.7,3.7H25.9c-2,0-3.7-1.7-3.7-3.7v-27.7c0-2,1.7-3.7,3.7-3.7h118.3
							c2,0,3.7,1.7,3.7,3.7V238.9z"/>
						<path class="st9" d="M144.7,236.9c0,1.7-1.6,3.1-3.5,3.1H29c-1.9,0-3.5-1.4-3.5-3.1v-23.6c0-1.7,1.6-3.1,3.5-3.1h112.2
							c1.9,0,3.5,1.4,3.5,3.1V236.9z"/>
						<line class="st12" x1="25.5" y1="225.1" x2="144.7" y2="225.1"/>
					</g>
					<g>
						<g>
							<path class="st13" d="M50.3,225.1c0,4.6-3.7,8.3-8.3,8.3c-4.6,0-8.3-3.7-8.3-8.3c0-4.6,3.7-8.3,8.3-8.3
								C46.5,216.8,50.3,220.5,50.3,225.1z"/>
							<path class="st14" d="M48.6,225.1c0,3.7-3,6.7-6.7,6.7c-3.7,0-6.7-3-6.7-6.7c0-3.7,3-6.7,6.7-6.7
								C45.6,218.4,48.6,221.4,48.6,225.1z"/>
							<path class="st15" d="M46.1,219.8c0,1-0.8,1.7-1.7,1.7c-1,0-1.7-0.8-1.7-1.7c0-1,0.8-1.7,1.7-1.7
								C45.3,218,46.1,218.8,46.1,219.8z"/>
						</g>
						<g>
							<path class="st16" d="M62.5,225.1c0,1.4-1.1,2.5-2.5,2.5c-1.4,0-2.5-1.1-2.5-2.5c0-1.4,1.1-2.5,2.5-2.5
								C61.4,222.6,62.5,223.7,62.5,225.1z"/>
							<path class="st16" d="M70.7,225.1c0,1.4-1.1,2.5-2.5,2.5c-1.4,0-2.5-1.1-2.5-2.5c0-1.4,1.1-2.5,2.5-2.5
								C69.6,222.6,70.7,223.7,70.7,225.1z"/>
							<path class="st16" d="M78.9,225.1c0,1.4-1.1,2.5-2.5,2.5c-1.4,0-2.5-1.1-2.5-2.5c0-1.4,1.1-2.5,2.5-2.5
								C77.8,222.6,78.9,223.7,78.9,225.1z"/>
						</g>
						<g>
							<path class="st10" d="M90.9,215.1c0.3,0,0.5,0.3,0.5,0.6v18.9c0,0.3-0.2,0.6-0.5,0.6h-4c-0.3,0-0.5-0.3-0.5-0.6v-18.9
								c0-0.3,0.2-0.6,0.5-0.6H90.9z"/>
							<path class="st10" d="M99.9,215.1c0.3,0,0.5,0.3,0.5,0.6v18.9c0,0.3-0.2,0.6-0.5,0.6h-4c-0.3,0-0.5-0.3-0.5-0.6v-18.9
								c0-0.3,0.2-0.6,0.5-0.6H99.9z"/>
							<path class="st10" d="M109,215.1c0.3,0,0.5,0.3,0.5,0.6v18.9c0,0.3-0.2,0.6-0.5,0.6h-4c-0.3,0-0.5-0.3-0.5-0.6v-18.9
								c0-0.3,0.2-0.6,0.5-0.6H109z"/>
							<path class="st10" d="M118,215.1c0.3,0,0.5,0.3,0.5,0.6v18.9c0,0.3-0.2,0.6-0.5,0.6h-4c-0.3,0-0.5-0.3-0.5-0.6v-18.9
								c0-0.3,0.2-0.6,0.5-0.6H118z"/>
							<path class="st10" d="M127,215.1c0.3,0,0.5,0.3,0.5,0.6v18.9c0,0.3-0.2,0.6-0.5,0.6h-4c-0.3,0-0.5-0.3-0.5-0.6v-18.9
								c0-0.3,0.2-0.6,0.5-0.6H127z"/>
							<path class="st10" d="M136.1,215.1c0.3,0,0.5,0.3,0.5,0.6v18.9c0,0.3-0.2,0.6-0.5,0.6h-4c-0.3,0-0.5-0.3-0.5-0.6v-18.9
								c0-0.3,0.2-0.6,0.5-0.6H136.1z"/>
						</g>
					</g>
				</g>
				<g>
					<g>
						<path class="st11" d="M148,160.7c0,2-1.7,3.7-3.7,3.7H25.9c-2,0-3.7-1.7-3.7-3.7V133c0-2,1.7-3.7,3.7-3.7h118.3
							c2,0,3.7,1.7,3.7,3.7V160.7z"/>
						<path class="st9" d="M144.7,158.7c0,1.7-1.6,3.1-3.5,3.1H29c-1.9,0-3.5-1.4-3.5-3.1v-23.6c0-1.7,1.6-3.1,3.5-3.1h112.2
							c1.9,0,3.5,1.4,3.5,3.1V158.7z"/>
						<line class="st12" x1="25.5" y1="146.9" x2="144.7" y2="146.9"/>
					</g>
					<g>
						<g>
							<circle class="st13" cx="41.9" cy="146.9" r="8.3"/>
							<path class="st14" d="M48.6,146.9c0,3.7-3,6.7-6.7,6.7c-3.7,0-6.7-3-6.7-6.7c0-3.7,3-6.7,6.7-6.7
								C45.6,140.2,48.6,143.2,48.6,146.9z"/>
							<path class="st15" d="M46.1,141.6c0,1-0.8,1.7-1.7,1.7c-1,0-1.7-0.8-1.7-1.7c0-1,0.8-1.7,1.7-1.7
								C45.3,139.8,46.1,140.6,46.1,141.6z"/>
						</g>
						<g>
							<path class="st16" d="M62.5,146.9c0,1.4-1.1,2.5-2.5,2.5c-1.4,0-2.5-1.1-2.5-2.5c0-1.4,1.1-2.5,2.5-2.5
								C61.4,144.4,62.5,145.5,62.5,146.9z"/>
							<path class="st16" d="M70.7,146.9c0,1.4-1.1,2.5-2.5,2.5c-1.4,0-2.5-1.1-2.5-2.5c0-1.4,1.1-2.5,2.5-2.5
								C69.6,144.4,70.7,145.5,70.7,146.9z"/>
							<path class="st16" d="M78.9,146.9c0,1.4-1.1,2.5-2.5,2.5c-1.4,0-2.5-1.1-2.5-2.5c0-1.4,1.1-2.5,2.5-2.5
								C77.8,144.4,78.9,145.5,78.9,146.9z"/>
						</g>
						<g>
							<path class="st10" d="M90.9,136.9c0.3,0,0.5,0.3,0.5,0.6v18.9c0,0.3-0.2,0.6-0.5,0.6h-4c-0.3,0-0.5-0.3-0.5-0.6v-18.9
								c0-0.3,0.2-0.6,0.5-0.6H90.9z"/>
							<path class="st10" d="M99.9,136.9c0.3,0,0.5,0.3,0.5,0.6v18.9c0,0.3-0.2,0.6-0.5,0.6h-4c-0.3,0-0.5-0.3-0.5-0.6v-18.9
								c0-0.3,0.2-0.6,0.5-0.6H99.9z"/>
							<path class="st10" d="M109,136.9c0.3,0,0.5,0.3,0.5,0.6v18.9c0,0.3-0.2,0.6-0.5,0.6h-4c-0.3,0-0.5-0.3-0.5-0.6v-18.9
								c0-0.3,0.2-0.6,0.5-0.6H109z"/>
							<path class="st10" d="M118,136.9c0.3,0,0.5,0.3,0.5,0.6v18.9c0,0.3-0.2,0.6-0.5,0.6h-4c-0.3,0-0.5-0.3-0.5-0.6v-18.9
								c0-0.3,0.2-0.6,0.5-0.6H118z"/>
							<path class="st10" d="M127,136.9c0.3,0,0.5,0.3,0.5,0.6v18.9c0,0.3-0.2,0.6-0.5,0.6h-4c-0.3,0-0.5-0.3-0.5-0.6v-18.9
								c0-0.3,0.2-0.6,0.5-0.6H127z"/>
							<path class="st10" d="M136.1,136.9c0.3,0,0.5,0.3,0.5,0.6v18.9c0,0.3-0.2,0.6-0.5,0.6h-4c-0.3,0-0.5-0.3-0.5-0.6v-18.9
								c0-0.3,0.2-0.6,0.5-0.6H136.1z"/>
						</g>
					</g>
				</g>
				<g>
					<rect x="35.7" y="242.6" class="st9" width="13.3" height="4.1"/>
					<rect x="121.3" y="242.6" class="st9" width="13.3" height="4.1"/>
				</g>
				<g>
					<g>
						<path class="st11" d="M148,277.9c0,2-1.7,3.7-3.7,3.7H25.9c-2,0-3.7-1.7-3.7-3.7v-27.7c0-2,1.7-3.7,3.7-3.7h118.3
							c2,0,3.7,1.7,3.7,3.7V277.9z"/>
						<path class="st9" d="M144.7,275.9c0,1.7-1.6,3.1-3.5,3.1H29c-1.9,0-3.5-1.4-3.5-3.1v-23.6c0-1.7,1.6-3.1,3.5-3.1h112.2
							c1.9,0,3.5,1.4,3.5,3.1V275.9z"/>
						<line class="st12" x1="25.5" y1="264.1" x2="144.7" y2="264.1"/>
					</g>
					<g>
						<g>
							<path class="st13" d="M136.2,264.1c0,4.6-3.7,8.3-8.3,8.3c-4.6,0-8.3-3.7-8.3-8.3c0-4.6,3.7-8.3,8.3-8.3
								C132.5,255.8,136.2,259.5,136.2,264.1z"/>
							<path class="st14" d="M134.6,264.1c0,3.7-3,6.7-6.7,6.7c-3.7,0-6.7-3-6.7-6.7c0-3.7,3-6.7,6.7-6.7
								C131.6,257.4,134.6,260.4,134.6,264.1z"/>
							<path class="st15" d="M132,258.7c0,1-0.8,1.7-1.7,1.7c-1,0-1.7-0.8-1.7-1.7c0-1,0.8-1.7,1.7-1.7
								C131.2,257,132,257.8,132,258.7z"/>
						</g>
						<g>
							<g>
								<path class="st16" d="M40.3,258.2c0,1.4-1.1,2.5-2.5,2.5c-1.4,0-2.5-1.1-2.5-2.5c0-1.4,1.1-2.5,2.5-2.5
									C39.2,255.8,40.3,256.9,40.3,258.2z"/>
								<path class="st16" d="M48.5,258.2c0,1.4-1.1,2.5-2.5,2.5c-1.4,0-2.5-1.1-2.5-2.5c0-1.4,1.1-2.5,2.5-2.5
									C47.4,255.8,48.5,256.9,48.5,258.2z"/>
								<path class="st16" d="M56.7,258.2c0,1.4-1.1,2.5-2.5,2.5c-1.4,0-2.5-1.1-2.5-2.5c0-1.4,1.1-2.5,2.5-2.5
									C55.6,255.8,56.7,256.9,56.7,258.2z"/>
							</g>
							<g>
								<path class="st16" d="M40.3,269.6c0,1.4-1.1,2.5-2.5,2.5c-1.4,0-2.5-1.1-2.5-2.5c0-1.4,1.1-2.5,2.5-2.5
									C39.2,267.1,40.3,268.2,40.3,269.6z"/>
								<path class="st16" d="M48.5,269.6c0,1.4-1.1,2.5-2.5,2.5c-1.4,0-2.5-1.1-2.5-2.5c0-1.4,1.1-2.5,2.5-2.5
									C47.4,267.1,48.5,268.2,48.5,269.6z"/>
								<path class="st16" d="M56.7,269.6c0,1.4-1.1,2.5-2.5,2.5c-1.4,0-2.5-1.1-2.5-2.5c0-1.4,1.1-2.5,2.5-2.5
									C55.6,267.1,56.7,268.2,56.7,269.6z"/>
							</g>
						</g>
						<g>
							<path class="st10" d="M75.5,254c0.3,0,0.5,0.3,0.5,0.6v18.9c0,0.3-0.2,0.6-0.5,0.6h-4c-0.3,0-0.5-0.3-0.5-0.6v-18.9
								c0-0.3,0.2-0.6,0.5-0.6H75.5z"/>
							<path class="st10" d="M84.6,254c0.3,0,0.5,0.3,0.5,0.6v18.9c0,0.3-0.2,0.6-0.5,0.6h-4c-0.3,0-0.5-0.3-0.5-0.6v-18.9
								c0-0.3,0.2-0.6,0.5-0.6H84.6z"/>
							<path class="st10" d="M93.6,254c0.3,0,0.5,0.3,0.5,0.6v18.9c0,0.3-0.2,0.6-0.5,0.6h-4c-0.3,0-0.5-0.3-0.5-0.6v-18.9
								c0-0.3,0.2-0.6,0.5-0.6H93.6z"/>
							<path class="st10" d="M102.7,254c0.3,0,0.5,0.3,0.5,0.6v18.9c0,0.3-0.2,0.6-0.5,0.6h-4c-0.3,0-0.5-0.3-0.5-0.6v-18.9
								c0-0.3,0.2-0.6,0.5-0.6H102.7z"/>
						</g>
					</g>
				</g>
				<g>
					<rect x="35.7" y="281.6" class="st9" width="13.3" height="4.1"/>
					<rect x="121.3" y="281.6" class="st9" width="13.3" height="4.1"/>
				</g>
				<g>
					<g>
						<path class="st11" d="M148,316.9c0,2-1.7,3.7-3.7,3.7H25.9c-2,0-3.7-1.7-3.7-3.7v-27.7c0-2,1.7-3.7,3.7-3.7h118.3
							c2,0,3.7,1.7,3.7,3.7V316.9z"/>
						<path class="st9" d="M144.7,314.8c0,1.7-1.6,3.1-3.5,3.1H29c-1.9,0-3.5-1.4-3.5-3.1v-23.6c0-1.7,1.6-3.1,3.5-3.1h112.2
							c1.9,0,3.5,1.4,3.5,3.1V314.8z"/>
						<line class="st12" x1="25.5" y1="303.1" x2="144.7" y2="303.1"/>
					</g>
					<g>
						<g>
							<path class="st13" d="M87.2,303.1c0,4.6-3.7,8.3-8.3,8.3c-4.6,0-8.3-3.7-8.3-8.3c0-4.6,3.7-8.3,8.3-8.3
								C83.5,294.7,87.2,298.5,87.2,303.1z"/>
							<path class="st14" d="M85.6,303.1c0,3.7-3,6.7-6.7,6.7c-3.7,0-6.7-3-6.7-6.7c0-3.7,3-6.7,6.7-6.7
								C82.6,296.4,85.6,299.4,85.6,303.1z"/>
							<path class="st15" d="M83,297.7c0,1-0.8,1.7-1.7,1.7c-1,0-1.7-0.8-1.7-1.7c0-1,0.8-1.7,1.7-1.7C82.2,296,83,296.8,83,297.7z"
								/>
						</g>
						<g>
							<circle class="st16" cx="37.2" cy="303.1" r="2.5"/>
							<path class="st16" d="M47.8,303.1c0,1.4-1.1,2.5-2.5,2.5c-1.4,0-2.5-1.1-2.5-2.5c0-1.4,1.1-2.5,2.5-2.5
								C46.7,300.6,47.8,301.7,47.8,303.1z"/>
							<path class="st16" d="M56.1,303.1c0,1.4-1.1,2.5-2.5,2.5c-1.4,0-2.5-1.1-2.5-2.5c0-1.4,1.1-2.5,2.5-2.5
								C55,300.6,56.1,301.7,56.1,303.1z"/>
							<path class="st16" d="M64.3,303.1c0,1.4-1.1,2.5-2.5,2.5c-1.4,0-2.5-1.1-2.5-2.5c0-1.4,1.1-2.5,2.5-2.5
								C63.2,300.6,64.3,301.7,64.3,303.1z"/>
						</g>
						<g>
							<path class="st10" d="M99.9,293c0.3,0,0.5,0.3,0.5,0.6v18.9c0,0.3-0.2,0.6-0.5,0.6h-4c-0.3,0-0.5-0.3-0.5-0.6v-18.9
								c0-0.3,0.2-0.6,0.5-0.6H99.9z"/>
							<path class="st10" d="M109,293c0.3,0,0.5,0.3,0.5,0.6v18.9c0,0.3-0.2,0.6-0.5,0.6h-4c-0.3,0-0.5-0.3-0.5-0.6v-18.9
								c0-0.3,0.2-0.6,0.5-0.6H109z"/>
							<path class="st10" d="M118,293c0.3,0,0.5,0.3,0.5,0.6v18.9c0,0.3-0.2,0.6-0.5,0.6h-4c-0.3,0-0.5-0.3-0.5-0.6v-18.9
								c0-0.3,0.2-0.6,0.5-0.6H118z"/>
							<path class="st10" d="M127,293c0.3,0,0.5,0.3,0.5,0.6v18.9c0,0.3-0.2,0.6-0.5,0.6h-4c-0.3,0-0.5-0.3-0.5-0.6v-18.9
								c0-0.3,0.2-0.6,0.5-0.6H127z"/>
							<path class="st10" d="M136.1,293c0.3,0,0.5,0.3,0.5,0.6v18.9c0,0.3-0.2,0.6-0.5,0.6h-4c-0.3,0-0.5-0.3-0.5-0.6v-18.9
								c0-0.3,0.2-0.6,0.5-0.6H136.1z"/>
						</g>
					</g>
				</g>
				<g>
					<rect x="35.7" y="320.6" class="st9" width="13.3" height="4.1"/>
					<rect x="121.3" y="320.6" class="st9" width="13.3" height="4.1"/>
				</g>
				<g>
					<rect x="35.7" y="359.6" class="st9" width="13.3" height="4.1"/>
					<rect x="121.3" y="359.6" class="st9" width="13.3" height="4.1"/>
				</g>
				<g>
					<g>
						<path class="st11" d="M148,355.9c0,2-1.7,3.7-3.7,3.7H25.9c-2,0-3.7-1.7-3.7-3.7v-27.7c0-2,1.7-3.7,3.7-3.7h118.3
							c2,0,3.7,1.7,3.7,3.7V355.9z"/>
						<path class="st9" d="M144.7,353.8c0,1.7-1.6,3.1-3.5,3.1H29c-1.9,0-3.5-1.4-3.5-3.1v-23.6c0-1.7,1.6-3.1,3.5-3.1h112.2
							c1.9,0,3.5,1.4,3.5,3.1V353.8z"/>
						<line class="st12" x1="25.5" y1="342" x2="144.7" y2="342"/>
					</g>
					<g>
						<g>
							<path class="st13" d="M96.2,341.6c0,4.6-3.7,8.3-8.3,8.3c-4.6,0-8.3-3.7-8.3-8.3c0-4.6,3.7-8.3,8.3-8.3
								C92.4,333.3,96.2,337,96.2,341.6z"/>
							<path class="st14" d="M94.5,341.6c0,3.7-3,6.7-6.7,6.7c-3.7,0-6.7-3-6.7-6.7c0-3.7,3-6.7,6.7-6.7
								C91.5,335,94.5,337.9,94.5,341.6z"/>
							<path class="st15" d="M92,336.3c0,1-0.8,1.7-1.7,1.7c-1,0-1.7-0.8-1.7-1.7c0-1,0.8-1.7,1.7-1.7C91.2,334.6,92,335.3,92,336.3
								z"/>
						</g>
						<g>
							<g>
								<path class="st16" d="M63.9,335.8c0,1.4-1.1,2.5-2.5,2.5c-1.4,0-2.5-1.1-2.5-2.5c0-1.4,1.1-2.5,2.5-2.5
									C62.7,333.3,63.9,334.4,63.9,335.8z"/>
								<path class="st16" d="M72.1,335.8c0,1.4-1.1,2.5-2.5,2.5c-1.4,0-2.5-1.1-2.5-2.5c0-1.4,1.1-2.5,2.5-2.5
									C71,333.3,72.1,334.4,72.1,335.8z"/>
							</g>
							<g>
								<path class="st16" d="M63.9,347.1c0,1.4-1.1,2.5-2.5,2.5c-1.4,0-2.5-1.1-2.5-2.5c0-1.4,1.1-2.5,2.5-2.5
									C62.7,344.7,63.9,345.8,63.9,347.1z"/>
								<path class="st16" d="M72.1,347.1c0,1.4-1.1,2.5-2.5,2.5c-1.4,0-2.5-1.1-2.5-2.5c0-1.4,1.1-2.5,2.5-2.5
									C71,344.7,72.1,345.8,72.1,347.1z"/>
							</g>
						</g>
						<g>
							<g>
								<path class="st16" d="M107.9,335.8c0,1.4-1.1,2.5-2.5,2.5c-1.4,0-2.5-1.1-2.5-2.5c0-1.4,1.1-2.5,2.5-2.5
									C106.7,333.3,107.9,334.4,107.9,335.8z"/>
								<path class="st16" d="M116.1,335.8c0,1.4-1.1,2.5-2.5,2.5c-1.4,0-2.5-1.1-2.5-2.5c0-1.4,1.1-2.5,2.5-2.5
									C115,333.3,116.1,334.4,116.1,335.8z"/>
							</g>
							<g>
								<path class="st16" d="M107.9,347.1c0,1.4-1.1,2.5-2.5,2.5c-1.4,0-2.5-1.1-2.5-2.5c0-1.4,1.1-2.5,2.5-2.5
									C106.7,344.7,107.9,345.8,107.9,347.1z"/>
								<path class="st16" d="M116.1,347.1c0,1.4-1.1,2.5-2.5,2.5c-1.4,0-2.5-1.1-2.5-2.5c0-1.4,1.1-2.5,2.5-2.5
									C115,344.7,116.1,345.8,116.1,347.1z"/>
							</g>
						</g>
						<g>
							<path class="st10" d="M40.2,331.6c0.3,0,0.5,0.3,0.5,0.6v18.9c0,0.3-0.2,0.6-0.5,0.6h-4c-0.3,0-0.5-0.3-0.5-0.6v-18.9
								c0-0.3,0.2-0.6,0.5-0.6H40.2z"/>
							<path class="st10" d="M49.3,331.6c0.3,0,0.5,0.3,0.5,0.6v18.9c0,0.3-0.2,0.6-0.5,0.6h-4c-0.3,0-0.5-0.3-0.5-0.6v-18.9
								c0-0.3,0.2-0.6,0.5-0.6H49.3z"/>
						</g>
						<g>
							<path class="st10" d="M127.8,331.6c0.3,0,0.5,0.3,0.5,0.6v18.9c0,0.3-0.2,0.6-0.5,0.6h-4c-0.3,0-0.5-0.3-0.5-0.6v-18.9
								c0-0.3,0.2-0.6,0.5-0.6H127.8z"/>
							<path class="st10" d="M136.8,331.6c0.3,0,0.5,0.3,0.5,0.6v18.9c0,0.3-0.2,0.6-0.5,0.6h-4c-0.3,0-0.5-0.3-0.5-0.6v-18.9
								c0-0.3,0.2-0.6,0.5-0.6H136.8z"/>
						</g>
					</g>
				</g>
				<g>
					<rect x="35.7" y="164.4" class="st9" width="13.3" height="4.1"/>
					<rect x="121.3" y="164.4" class="st9" width="13.3" height="4.1"/>
				</g>
				<g>
					<rect x="35.7" y="203.4" class="st9" width="13.3" height="4.1"/>
					<rect x="121.3" y="203.4" class="st9" width="13.3" height="4.1"/>
				</g>
				<g>
					<g>
						<path class="st11" d="M148,199.7c0,2-1.7,3.7-3.7,3.7H25.9c-2,0-3.7-1.7-3.7-3.7V172c0-2,1.7-3.7,3.7-3.7h118.3
							c2,0,3.7,1.7,3.7,3.7V199.7z"/>
						<path class="st9" d="M144.7,197.7c0,1.7-1.6,3.1-3.5,3.1H29c-1.9,0-3.5-1.4-3.5-3.1v-23.6c0-1.7,1.6-3.1,3.5-3.1h112.2
							c1.9,0,3.5,1.4,3.5,3.1V197.7z"/>
						<line class="st12" x1="25.5" y1="185.9" x2="144.7" y2="185.9"/>
					</g>
					<g>
						<g>
							<path class="st13" d="M96.2,185.5c0,4.6-3.7,8.3-8.3,8.3c-4.6,0-8.3-3.7-8.3-8.3c0-4.6,3.7-8.3,8.3-8.3
								C92.4,177.1,96.2,180.9,96.2,185.5z"/>
							<path class="st14" d="M94.5,185.5c0,3.7-3,6.7-6.7,6.7c-3.7,0-6.7-3-6.7-6.7c0-3.7,3-6.7,6.7-6.7
								C91.5,178.8,94.5,181.8,94.5,185.5z"/>
							<path class="st15" d="M92,180.1c0,1-0.8,1.7-1.7,1.7c-1,0-1.7-0.8-1.7-1.7c0-1,0.8-1.7,1.7-1.7C91.2,178.4,92,179.2,92,180.1
								z"/>
						</g>
						<g>
							<g>
								<path class="st16" d="M63.9,179.6c0,1.4-1.1,2.5-2.5,2.5c-1.4,0-2.5-1.1-2.5-2.5c0-1.4,1.1-2.5,2.5-2.5
									C62.7,177.1,63.9,178.2,63.9,179.6z"/>
								<path class="st16" d="M72.1,179.6c0,1.4-1.1,2.5-2.5,2.5c-1.4,0-2.5-1.1-2.5-2.5c0-1.4,1.1-2.5,2.5-2.5
									C71,177.1,72.1,178.2,72.1,179.6z"/>
							</g>
							<g>
								<circle class="st16" cx="61.4" cy="190.9" r="2.5"/>
								<path class="st16" d="M72.1,190.9c0,1.4-1.1,2.5-2.5,2.5c-1.4,0-2.5-1.1-2.5-2.5c0-1.4,1.1-2.5,2.5-2.5
									C71,188.5,72.1,189.6,72.1,190.9z"/>
							</g>
						</g>
						<g>
							<g>
								<path class="st16" d="M107.9,179.6c0,1.4-1.1,2.5-2.5,2.5c-1.4,0-2.5-1.1-2.5-2.5c0-1.4,1.1-2.5,2.5-2.5
									C106.7,177.1,107.9,178.2,107.9,179.6z"/>
								<path class="st16" d="M116.1,179.6c0,1.4-1.1,2.5-2.5,2.5c-1.4,0-2.5-1.1-2.5-2.5c0-1.4,1.1-2.5,2.5-2.5
									C115,177.1,116.1,178.2,116.1,179.6z"/>
							</g>
							<g>
								<path class="st16" d="M107.9,190.9c0,1.4-1.1,2.5-2.5,2.5c-1.4,0-2.5-1.1-2.5-2.5c0-1.4,1.1-2.5,2.5-2.5
									C106.7,188.5,107.9,189.6,107.9,190.9z"/>
								<path class="st16" d="M116.1,190.9c0,1.4-1.1,2.5-2.5,2.5c-1.4,0-2.5-1.1-2.5-2.5c0-1.4,1.1-2.5,2.5-2.5
									C115,188.5,116.1,189.6,116.1,190.9z"/>
							</g>
						</g>
						<g>
							<path class="st10" d="M40.2,175.4c0.3,0,0.5,0.3,0.5,0.6v18.9c0,0.3-0.2,0.6-0.5,0.6h-4c-0.3,0-0.5-0.3-0.5-0.6V176
								c0-0.3,0.2-0.6,0.5-0.6H40.2z"/>
							<path class="st10" d="M49.3,175.4c0.3,0,0.5,0.3,0.5,0.6v18.9c0,0.3-0.2,0.6-0.5,0.6h-4c-0.3,0-0.5-0.3-0.5-0.6V176
								c0-0.3,0.2-0.6,0.5-0.6H49.3z"/>
						</g>
						<g>
							<path class="st10" d="M127.8,175.4c0.3,0,0.5,0.3,0.5,0.6v18.9c0,0.3-0.2,0.6-0.5,0.6h-4c-0.3,0-0.5-0.3-0.5-0.6V176
								c0-0.3,0.2-0.6,0.5-0.6H127.8z"/>
							<path class="st10" d="M136.8,175.4c0.3,0,0.5,0.3,0.5,0.6v18.9c0,0.3-0.2,0.6-0.5,0.6h-4c-0.3,0-0.5-0.3-0.5-0.6V176
								c0-0.3,0.2-0.6,0.5-0.6H136.8z"/>
						</g>
					</g>
				</g>
			</g>
			<g>
				<g>
					<g>
						<path class="st11" d="M404.9,277.9c0,2-1.7,3.7-3.7,3.7H282.9c-2,0-3.7-1.7-3.7-3.7v-27.7c0-2,1.7-3.7,3.7-3.7h118.3
							c2,0,3.7,1.7,3.7,3.7V277.9z"/>
						<path class="st9" d="M401.7,275.9c0,1.7-1.6,3.1-3.5,3.1H286c-1.9,0-3.5-1.4-3.5-3.1v-23.6c0-1.7,1.6-3.1,3.5-3.1h112.2
							c1.9,0,3.5,1.4,3.5,3.1V275.9z"/>
						<line class="st12" x1="282.5" y1="264.1" x2="401.7" y2="264.1"/>
					</g>
					<g>
						<g>
							<path class="st13" d="M307.2,264.1c0,4.6-3.7,8.3-8.3,8.3s-8.3-3.7-8.3-8.3c0-4.6,3.7-8.3,8.3-8.3S307.2,259.5,307.2,264.1z"
								/>
							<path class="st14" d="M305.6,264.1c0,3.7-3,6.7-6.7,6.7s-6.7-3-6.7-6.7c0-3.7,3-6.7,6.7-6.7S305.6,260.4,305.6,264.1z"/>
							<path class="st15" d="M303,258.7c0,1-0.8,1.7-1.7,1.7c-1,0-1.7-0.8-1.7-1.7c0-1,0.8-1.7,1.7-1.7
								C302.2,257,303,257.8,303,258.7z"/>
						</g>
						<g>
							<g>
								<path class="st17" d="M319.5,264.1c0,1.4-1.1,2.5-2.5,2.5c-1.4,0-2.5-1.1-2.5-2.5s1.1-2.5,2.5-2.5
									C318.4,261.6,319.5,262.7,319.5,264.1z"/>
								<path class="st17" d="M327.7,264.1c0,1.4-1.1,2.5-2.5,2.5c-1.4,0-2.5-1.1-2.5-2.5s1.1-2.5,2.5-2.5
									C326.6,261.6,327.7,262.7,327.7,264.1z"/>
								<path class="st17" d="M335.9,264.1c0,1.4-1.1,2.5-2.5,2.5c-1.4,0-2.5-1.1-2.5-2.5s1.1-2.5,2.5-2.5
									C334.8,261.6,335.9,262.7,335.9,264.1z"/>
							</g>
						</g>
						<g>
							<path class="st10" d="M347.8,254c0.3,0,0.5,0.3,0.5,0.6v18.9c0,0.3-0.2,0.6-0.5,0.6h-4c-0.3,0-0.5-0.3-0.5-0.6v-18.9
								c0-0.3,0.2-0.6,0.5-0.6H347.8z"/>
							<path class="st10" d="M356.9,254c0.3,0,0.5,0.3,0.5,0.6v18.9c0,0.3-0.2,0.6-0.5,0.6h-4c-0.3,0-0.5-0.3-0.5-0.6v-18.9
								c0-0.3,0.2-0.6,0.5-0.6H356.9z"/>
							<path class="st10" d="M365.9,254c0.3,0,0.5,0.3,0.5,0.6v18.9c0,0.3-0.2,0.6-0.5,0.6h-4c-0.3,0-0.5-0.3-0.5-0.6v-18.9
								c0-0.3,0.2-0.6,0.5-0.6H365.9z"/>
							<path class="st10" d="M375,254c0.3,0,0.5,0.3,0.5,0.6v18.9c0,0.3-0.2,0.6-0.5,0.6h-4c-0.3,0-0.5-0.3-0.5-0.6v-18.9
								c0-0.3,0.2-0.6,0.5-0.6H375z"/>
							<path class="st10" d="M384,254c0.3,0,0.5,0.3,0.5,0.6v18.9c0,0.3-0.2,0.6-0.5,0.6h-4c-0.3,0-0.5-0.3-0.5-0.6v-18.9
								c0-0.3,0.2-0.6,0.5-0.6H384z"/>
							<path class="st10" d="M393,254c0.3,0,0.5,0.3,0.5,0.6v18.9c0,0.3-0.2,0.6-0.5,0.6h-4c-0.3,0-0.5-0.3-0.5-0.6v-18.9
								c0-0.3,0.2-0.6,0.5-0.6H393z"/>
						</g>
					</g>
				</g>
				<g>
					<rect x="292.6" y="281.6" class="st9" width="13.3" height="4.1"/>
					<rect x="378.2" y="281.6" class="st9" width="13.3" height="4.1"/>
				</g>
				<g>
					<g>
						<path class="st11" d="M404.9,316.9c0,2-1.7,3.7-3.7,3.7H282.9c-2,0-3.7-1.7-3.7-3.7v-27.7c0-2,1.7-3.7,3.7-3.7h118.3
							c2,0,3.7,1.7,3.7,3.7V316.9z"/>
						<path class="st9" d="M401.7,314.8c0,1.7-1.6,3.1-3.5,3.1H286c-1.9,0-3.5-1.4-3.5-3.1v-23.6c0-1.7,1.6-3.1,3.5-3.1h112.2
							c1.9,0,3.5,1.4,3.5,3.1V314.8z"/>
						<line class="st12" x1="282.5" y1="303.1" x2="401.7" y2="303.1"/>
					</g>
					<g>
						<g>
							<path class="st13" d="M393.2,303.1c0,4.6-3.7,8.3-8.3,8.3c-4.6,0-8.3-3.7-8.3-8.3c0-4.6,3.7-8.3,8.3-8.3
								C389.5,294.7,393.2,298.5,393.2,303.1z"/>
							<path class="st14" d="M391.6,303.1c0,3.7-3,6.7-6.7,6.7c-3.7,0-6.7-3-6.7-6.7c0-3.7,3-6.7,6.7-6.7
								C388.6,296.4,391.6,299.4,391.6,303.1z"/>
							<path class="st15" d="M389,297.7c0,1-0.8,1.7-1.7,1.7c-1,0-1.7-0.8-1.7-1.7s0.8-1.7,1.7-1.7C388.2,296,389,296.8,389,297.7z"
								/>
						</g>
						<g>
							<g>
								<g>
									<path class="st17" d="M297.3,297.2c0,1.4-1.1,2.5-2.5,2.5c-1.4,0-2.5-1.1-2.5-2.5c0-1.4,1.1-2.5,2.5-2.5
										C296.2,294.7,297.3,295.8,297.3,297.2z"/>
									<path class="st17" d="M305.5,297.2c0,1.4-1.1,2.5-2.5,2.5c-1.4,0-2.5-1.1-2.5-2.5c0-1.4,1.1-2.5,2.5-2.5
										C304.4,294.7,305.5,295.8,305.5,297.2z"/>
									<path class="st17" d="M313.7,297.2c0,1.4-1.1,2.5-2.5,2.5c-1.4,0-2.5-1.1-2.5-2.5c0-1.4,1.1-2.5,2.5-2.5
										C312.6,294.7,313.7,295.8,313.7,297.2z"/>
								</g>
								<g>
									<path class="st17" d="M297.3,308.5c0,1.4-1.1,2.5-2.5,2.5c-1.4,0-2.5-1.1-2.5-2.5c0-1.4,1.1-2.5,2.5-2.5
										C296.2,306.1,297.3,307.2,297.3,308.5z"/>
									<path class="st17" d="M305.5,308.5c0,1.4-1.1,2.5-2.5,2.5c-1.4,0-2.5-1.1-2.5-2.5c0-1.4,1.1-2.5,2.5-2.5
										C304.4,306.1,305.5,307.2,305.5,308.5z"/>
									<path class="st17" d="M313.7,308.5c0,1.4-1.1,2.5-2.5,2.5c-1.4,0-2.5-1.1-2.5-2.5c0-1.4,1.1-2.5,2.5-2.5
										C312.6,306.1,313.7,307.2,313.7,308.5z"/>
								</g>
							</g>
						</g>
						<g>
							<path class="st10" d="M332.5,293c0.3,0,0.5,0.3,0.5,0.6v18.9c0,0.3-0.2,0.6-0.5,0.6h-4c-0.3,0-0.5-0.3-0.5-0.6v-18.9
								c0-0.3,0.2-0.6,0.5-0.6H332.5z"/>
							<path class="st10" d="M341.6,293c0.3,0,0.5,0.3,0.5,0.6v18.9c0,0.3-0.2,0.6-0.5,0.6h-4c-0.3,0-0.5-0.3-0.5-0.6v-18.9
								c0-0.3,0.2-0.6,0.5-0.6H341.6z"/>
							<path class="st10" d="M350.6,293c0.3,0,0.5,0.3,0.5,0.6v18.9c0,0.3-0.2,0.6-0.5,0.6h-4c-0.3,0-0.5-0.3-0.5-0.6v-18.9
								c0-0.3,0.2-0.6,0.5-0.6H350.6z"/>
							<path class="st10" d="M359.6,293c0.3,0,0.5,0.3,0.5,0.6v18.9c0,0.3-0.2,0.6-0.5,0.6h-4c-0.3,0-0.5-0.3-0.5-0.6v-18.9
								c0-0.3,0.2-0.6,0.5-0.6H359.6z"/>
						</g>
					</g>
				</g>
				<g>
					<rect x="292.6" y="320.6" class="st9" width="13.3" height="4.1"/>
					<rect x="378.2" y="320.6" class="st9" width="13.3" height="4.1"/>
				</g>
				<g>
					<g>
						<path class="st11" d="M404.9,355.9c0,2-1.7,3.7-3.7,3.7H282.9c-2,0-3.7-1.7-3.7-3.7v-27.7c0-2,1.7-3.7,3.7-3.7h118.3
							c2,0,3.7,1.7,3.7,3.7V355.9z"/>
						<path class="st9" d="M401.7,353.8c0,1.7-1.6,3.1-3.5,3.1H286c-1.9,0-3.5-1.4-3.5-3.1v-23.6c0-1.7,1.6-3.1,3.5-3.1h112.2
							c1.9,0,3.5,1.4,3.5,3.1V353.8z"/>
						<line class="st12" x1="282.5" y1="342" x2="401.7" y2="342"/>
					</g>
					<g>
						<g>
							<path class="st13" d="M344.2,342c0,4.6-3.7,8.3-8.3,8.3c-4.6,0-8.3-3.7-8.3-8.3c0-4.6,3.7-8.3,8.3-8.3
								C340.5,333.7,344.2,337.4,344.2,342z"/>
							<path class="st14" d="M342.6,342c0,3.7-3,6.7-6.7,6.7c-3.7,0-6.7-3-6.7-6.7c0-3.7,3-6.7,6.7-6.7
								C339.6,335.4,342.6,338.4,342.6,342z"/>
							<path class="st15" d="M340,336.7c0,1-0.8,1.7-1.7,1.7c-1,0-1.7-0.8-1.7-1.7c0-1,0.8-1.7,1.7-1.7
								C339.2,335,340,335.7,340,336.7z"/>
						</g>
						<g>
							<g>
								<circle class="st17" cx="294.1" cy="342" r="2.5"/>
								<path class="st17" d="M304.8,342c0,1.4-1.1,2.5-2.5,2.5c-1.4,0-2.5-1.1-2.5-2.5c0-1.4,1.1-2.5,2.5-2.5
									C303.7,339.6,304.8,340.7,304.8,342z"/>
								<path class="st17" d="M313,342c0,1.4-1.1,2.5-2.5,2.5c-1.4,0-2.5-1.1-2.5-2.5c0-1.4,1.1-2.5,2.5-2.5
									C311.9,339.6,313,340.7,313,342z"/>
								<path class="st17" d="M321.2,342c0,1.4-1.1,2.5-2.5,2.5c-1.4,0-2.5-1.1-2.5-2.5c0-1.4,1.1-2.5,2.5-2.5
									C320.1,339.6,321.2,340.7,321.2,342z"/>
							</g>
						</g>
						<g>
							<path class="st10" d="M356.9,332c0.3,0,0.5,0.3,0.5,0.6v18.9c0,0.3-0.2,0.6-0.5,0.6h-4c-0.3,0-0.5-0.3-0.5-0.6v-18.9
								c0-0.3,0.2-0.6,0.5-0.6H356.9z"/>
							<path class="st10" d="M365.9,332c0.3,0,0.5,0.3,0.5,0.6v18.9c0,0.3-0.2,0.6-0.5,0.6h-4c-0.3,0-0.5-0.3-0.5-0.6v-18.9
								c0-0.3,0.2-0.6,0.5-0.6H365.9z"/>
							<path class="st10" d="M375,332c0.3,0,0.5,0.3,0.5,0.6v18.9c0,0.3-0.2,0.6-0.5,0.6h-4c-0.3,0-0.5-0.3-0.5-0.6v-18.9
								c0-0.3,0.2-0.6,0.5-0.6H375z"/>
							<path class="st10" d="M384,332c0.3,0,0.5,0.3,0.5,0.6v18.9c0,0.3-0.2,0.6-0.5,0.6h-4c-0.3,0-0.5-0.3-0.5-0.6v-18.9
								c0-0.3,0.2-0.6,0.5-0.6H384z"/>
							<path class="st10" d="M393,332c0.3,0,0.5,0.3,0.5,0.6v18.9c0,0.3-0.2,0.6-0.5,0.6h-4c-0.3,0-0.5-0.3-0.5-0.6v-18.9
								c0-0.3,0.2-0.6,0.5-0.6H393z"/>
						</g>
					</g>
				</g>
				<g>
					<rect x="292.6" y="359.6" class="st9" width="13.3" height="4.1"/>
					<rect x="378.2" y="359.6" class="st9" width="13.3" height="4.1"/>
				</g>
			</g>
			<g>
				<path class="st18" d="M347.8,192c0.1-0.9,0.2-1.8,0.2-2.7c0-9.9-8-17.8-17.8-17.8c-2.9,0-5.6,0.7-8,1.9
					c-3.8-7.9-11.9-13.3-21.3-13.3c-13.1,0-23.6,10.6-23.6,23.6c0,0.4,0,0.7,0,1.1c-0.4,0-0.8,0-1.2,0c-9.8,0-17.8,7.9-17.8,17.8
					c0,9.7,7.8,17.6,17.5,17.7v0h71.3v0c0.1,0,0.1,0,0.2,0c7.8,0,14.1-6.3,14.1-14.1C361.4,198.5,355.3,192.2,347.8,192z"/>
				<path class="st19" d="M334.8,201.7c0.1-0.6,0.1-1.1,0.1-1.7c0-6.5-5.2-11.7-11.7-11.7c-1.9,0-3.7,0.4-5.2,1.2
					c-2.5-5.2-7.8-8.7-14-8.7c-8.6,0-15.5,7-15.5,15.5c0,0.2,0,0.5,0,0.7c-0.3,0-0.5,0-0.8,0c-6.4,0-11.7,5.2-11.7,11.7
					c0,6.4,5.1,11.6,11.5,11.7v0h46.8v0c0,0,0.1,0,0.1,0c5.1,0,9.3-4.2,9.3-9.3C343.7,205.9,339.7,201.8,334.8,201.7z"/>
			</g>
			<g>
				<path class="st18" d="M149,220.9c0.1-0.9,0.2-1.8,0.2-2.7c0-9.9-8-17.8-17.8-17.8c-2.9,0-5.6,0.7-8,1.9
					c-3.8-7.9-11.9-13.3-21.3-13.3c-13.1,0-23.6,10.6-23.6,23.6c0,0.4,0,0.7,0,1.1c-0.4,0-0.8,0-1.2,0c-9.8,0-17.8,7.9-17.8,17.8
					c0,9.7,7.8,17.6,17.5,17.7v0h71.3v0c0.1,0,0.1,0,0.2,0c7.8,0,14.1-6.3,14.1-14.1C162.7,227.4,156.6,221.2,149,220.9z"/>
				<path class="st19" d="M136,230.6c0.1-0.6,0.1-1.2,0.1-1.7c0-6.5-5.2-11.7-11.7-11.7c-1.9,0-3.7,0.4-5.2,1.2
					c-2.5-5.2-7.8-8.7-14-8.7c-8.6,0-15.5,7-15.5,15.5c0,0.2,0,0.5,0,0.7c-0.3,0-0.5,0-0.8,0c-6.4,0-11.7,5.2-11.7,11.7
					c0,6.4,5.1,11.6,11.5,11.7v0h46.8v0c0,0,0.1,0,0.1,0c5.1,0,9.3-4.2,9.3-9.3C145,234.8,141,230.8,136,230.6z"/>
			</g>
			<g>
				<g>
					<path class="st20" d="M313.4,202.9H111.5c-6.6,0-11.9,5.3-11.9,11.9v117.9v0.1c0,6.6,5.3,11.9,11.9,11.9h201.9
						c6.6,0,11.9-5.3,11.9-11.9v-0.1V214.9C325.3,208.3,320,202.9,313.4,202.9z"/>
					<path class="st21" d="M313.4,205.9H111.5c-6.6,0-11.9,5.3-11.9,11.9v117.9v0.1c0,6.6,5.3,11.9,11.9,11.9h201.9
						c6.6,0,11.9-5.3,11.9-11.9v-0.1V217.8C325.3,211.2,320,205.9,313.4,205.9z"/>
					<rect x="109.4" y="215.8" class="st4" width="205.4" height="116.2"/>
					<polygon class="st6" points="314.8,332 109.4,332 109.4,321.1 314.8,263 					"/>
				</g>
				<path class="st20" d="M88.1,344.8v11.8v0.1c0,5.8,4.5,7,10.1,7h228.5c5.6,0,10.1-1.2,10.1-7v-0.1v-11.8H88.1z"/>
				<polygon class="st19" points="247.8,351.1 178.2,351.1 172.1,344.8 252.8,344.8 				"/>
			</g>
			<g>
				<g>
					
						<rect x="188.6" y="160.2" transform="matrix(6.813931e-02 -0.9977 0.9977 6.813931e-02 8.5956 390.1408)" class="st19" width="49" height="60.6"/>
					<rect x="179.1" y="169.7" class="st22" width="60.6" height="49"/>
				</g>
				<path class="st17" d="M233.1,181.3h-35.5l-1.9-6.7c-0.6-1.8-1.5-2.3-3.9-2.3H174c-1.1,0-1.9,0.9-1.9,1.9v8.9v0.2V221
					c0,1.1,0.9,1.9,1.9,1.9h59.1c1.1,0,1.9-0.9,1.9-1.9v-37.7C235,182.2,234.2,181.3,233.1,181.3z"/>
				<path class="st23" d="M187.4,189.7c-5.4,0-10.6,0.9-15.3,2.6V221c0,1.1,0.9,1.9,1.9,1.9h53.8C226.6,204.4,209,189.7,187.4,189.7
					z"/>
			</g>
			<g>
				<path class="st9" d="M369.8,189.8h-55.4c-0.6,0-1.1-0.5-1.1-1.1v-55.4c0-0.6,0.5-1.1,1.1-1.1h55.4c0.6,0,1.1,0.5,1.1,1.1v55.4
					C370.9,189.3,370.4,189.8,369.8,189.8z"/>
				<path class="st10" d="M313.3,133.3v14.9h57.6v-14.9c0-0.6-0.5-1.1-1.1-1.1h-55.4C313.8,132.2,313.3,132.7,313.3,133.3z"/>
				<g>
					<g>
						<path class="st17" d="M323.7,140.3c0,1.1-0.9,1.9-1.9,1.9c-1.1,0-1.9-0.9-1.9-1.9c0-1.1,0.9-1.9,1.9-1.9
							C322.9,138.3,323.7,139.2,323.7,140.3z"/>
						<path class="st17" d="M331.3,140.3c0,1.1-0.9,1.9-1.9,1.9c-1.1,0-1.9-0.9-1.9-1.9c0-1.1,0.9-1.9,1.9-1.9
							C330.5,138.3,331.3,139.2,331.3,140.3z"/>
						<path class="st17" d="M338.9,140.3c0,1.1-0.9,1.9-1.9,1.9c-1.1,0-1.9-0.9-1.9-1.9c0-1.1,0.9-1.9,1.9-1.9
							C338,138.3,338.9,139.2,338.9,140.3z"/>
					</g>
				</g>
				<g>
					<polyline class="st24" points="352,175.5 358.7,168.9 352,162.3 					"/>
					<polyline class="st24" points="332.7,175.5 326.1,168.9 332.7,162.3 					"/>
					<line class="st24" x1="345.7" y1="162.3" x2="338.9" y2="176.2"/>
				</g>
			</g>
			<g>
				<g>
					<path class="st18" d="M259.7,276.2c0.2-1.1,0.2-2.2,0.2-3.3c0-12.3-10-22.2-22.2-22.2c-3.6,0-6.9,0.8-9.9,2.3
						c-4.8-9.8-14.8-16.6-26.5-16.6c-16.3,0-29.5,13.2-29.5,29.5c0,0.5,0,0.9,0,1.4c-0.5,0-1-0.1-1.5-0.1
						c-12.2,0-22.1,9.9-22.1,22.1c0,12.1,9.7,21.9,21.8,22.1v0h88.8v0c0.1,0,0.2,0,0.2,0c9.7,0,17.6-7.9,17.6-17.6
						C276.7,284.2,269.1,276.5,259.7,276.2z"/>
					<path class="st19" d="M243.5,288.2c0.1-0.7,0.2-1.4,0.2-2.2c0-8.1-6.5-14.6-14.6-14.6c-2.3,0-4.6,0.6-6.5,1.5
						c-3.1-6.5-9.8-10.9-17.4-10.9c-10.7,0-19.3,8.7-19.3,19.3c0,0.3,0,0.6,0,0.9c-0.3,0-0.7,0-1,0c-8,0-14.5,6.5-14.5,14.5
						c0,7.9,6.4,14.4,14.3,14.5v0h58.3v0c0.1,0,0.1,0,0.2,0c6.4,0,11.6-5.2,11.6-11.6C254.6,293.5,249.7,288.4,243.5,288.2z"/>
				</g>
				<text transform="matrix(1 3.300000e-04 -3.300000e-04 1 171.766 296.012)" class="st9 st25 st26">HOSTING</text>
				<g>
					<g>
						<g>
							<g>
								<line class="st27" x1="120.3" y1="286.8" x2="120.3" y2="288.7"/>
								<line class="st28" x1="120.3" y1="292.6" x2="120.3" y2="298.5"/>
								<polyline class="st27" points="120.3,300.4 120.3,302.3 122.2,302.3 								"/>
								<line class="st29" x1="125.8" y1="302.3" x2="160.5" y2="302.3"/>
								<line class="st27" x1="162.4" y1="302.3" x2="164.2" y2="302.3"/>
							</g>
						</g>
						<path class="st0" d="M122.2,287.5c0,1-0.8,1.9-1.9,1.9c-1,0-1.9-0.8-1.9-1.9c0-1,0.8-1.9,1.9-1.9
							C121.3,285.6,122.2,286.4,122.2,287.5z"/>
						<path class="st0" d="M122.2,302.3c0,1-0.8,1.9-1.9,1.9c-1,0-1.9-0.8-1.9-1.9c0-1,0.8-1.9,1.9-1.9
							C121.3,300.4,122.2,301.3,122.2,302.3z"/>
						<path class="st0" d="M167.1,302.3c0,1-0.8,1.9-1.9,1.9c-1,0-1.9-0.8-1.9-1.9c0-1,0.8-1.9,1.9-1.9
							C166.3,300.4,167.1,301.3,167.1,302.3z"/>
					</g>
					<g>
						<g>
							<g>
								<line class="st27" x1="142.4" y1="228.5" x2="142.4" y2="230.4"/>
								<line class="st30" x1="142.4" y1="234.4" x2="142.4" y2="272.2"/>
								<polyline class="st27" points="142.4,274.1 142.4,276 144.2,276 								"/>
								<line class="st31" x1="148.5" y1="276" x2="155" y2="276"/>
								<line class="st27" x1="157.1" y1="276" x2="159" y2="276"/>
							</g>
						</g>
						<path class="st0" d="M144.2,229.2c0,1-0.8,1.9-1.9,1.9s-1.9-0.8-1.9-1.9c0-1,0.8-1.9,1.9-1.9S144.2,228.2,144.2,229.2z"/>
						<path class="st0" d="M144.2,276c0,1-0.8,1.9-1.9,1.9s-1.9-0.8-1.9-1.9c0-1,0.8-1.9,1.9-1.9S144.2,275,144.2,276z"/>
						<path class="st0" d="M161.9,276c0,1-0.8,1.9-1.9,1.9c-1,0-1.9-0.8-1.9-1.9c0-1,0.8-1.9,1.9-1.9
							C161.1,274.1,161.9,275,161.9,276z"/>
					</g>
					<g>
						<polyline class="st32" points="204.7,252.8 204.7,228.2 222.3,228.2 						"/>
						<path class="st0" d="M206.6,252.8c0,1-0.8,1.9-1.9,1.9s-1.9-0.8-1.9-1.9c0-1,0.8-1.9,1.9-1.9S206.6,251.8,206.6,252.8z"/>
						<path class="st0" d="M206.6,228.2c0,1-0.8,1.9-1.9,1.9s-1.9-0.8-1.9-1.9c0-1,0.8-1.9,1.9-1.9S206.6,227.1,206.6,228.2z"/>
						<path class="st0" d="M225.4,228.2c0,1-0.8,1.9-1.9,1.9c-1,0-1.9-0.8-1.9-1.9c0-1,0.8-1.9,1.9-1.9
							C224.5,226.3,225.4,227.1,225.4,228.2z"/>
					</g>
					<g>
						<path class="st0" d="M255.5,272.6c0-1-0.8-1.9-1.9-1.9c-1,0-1.9,0.8-1.9,1.9c0,1,0.8,1.9,1.9,1.9
							C254.7,274.5,255.5,273.7,255.5,272.6z"/>
						<path class="st0" d="M304.4,272.6c0-1-0.8-1.9-1.9-1.9c-1,0-1.9,0.8-1.9,1.9c0,1,0.8,1.9,1.9,1.9
							C303.5,274.5,304.4,273.7,304.4,272.6z"/>
						<path class="st0" d="M304.4,253.3c0-1-0.8-1.9-1.9-1.9c-1,0-1.9,0.8-1.9,1.9c0,1,0.8,1.9,1.9,1.9
							C303.5,255.2,304.4,254.4,304.4,253.3z"/>
						<polyline class="st32" points="253.7,272.6 302.5,272.6 302.5,251.9 						"/>
					</g>
					<g>
						<path class="st0" d="M271,293.1c0,1-0.8,1.9-1.9,1.9s-1.9-0.8-1.9-1.9c0-1,0.8-1.9,1.9-1.9S271,292.1,271,293.1z"/>
						<path class="st0" d="M292.1,293.1c0,1-0.8,1.9-1.9,1.9c-1,0-1.9-0.8-1.9-1.9c0-1,0.8-1.9,1.9-1.9
							C291.2,291.2,292.1,292.1,292.1,293.1z"/>
						<line class="st32" x1="269.1" y1="293.1" x2="290.2" y2="293.1"/>
					</g>
					<g>
						<path class="st0" d="M206.6,303.8c0,1-0.8,1.9-1.9,1.9c-1,0-1.9-0.8-1.9-1.9c0-1,0.8-1.9,1.9-1.9
							C205.8,301.9,206.6,302.7,206.6,303.8z"/>
						<path class="st0" d="M206.6,327c0,1-0.8,1.9-1.9,1.9c-1,0-1.9-0.8-1.9-1.9c0-1,0.8-1.9,1.9-1.9
							C205.8,325.1,206.6,326,206.6,327z"/>
						<path class="st0" d="M176.5,327c0,1-0.8,1.9-1.9,1.9c-1,0-1.9-0.8-1.9-1.9c0-1,0.8-1.9,1.9-1.9
							C175.6,325.1,176.5,326,176.5,327z"/>
						<polyline class="st32" points="204.7,303.8 204.7,327 174.1,327 						"/>
					</g>
					<g>
						<path class="st0" d="M219.8,303.8c0,1-0.8,1.9-1.9,1.9c-1,0-1.9-0.8-1.9-1.9c0-1,0.8-1.9,1.9-1.9
							C219,301.9,219.8,302.7,219.8,303.8z"/>
						<path class="st0" d="M219.8,320.5c0,1-0.8,1.9-1.9,1.9c-1,0-1.9-0.8-1.9-1.9c0-1,0.8-1.9,1.9-1.9
							C219,318.6,219.8,319.5,219.8,320.5z"/>
						<circle class="st0" cx="231.5" cy="320.5" r="1.9"/>
						<polyline class="st32" points="217.9,303.5 217.9,320.5 232.5,320.5 						"/>
					</g>
				</g>
			</g>
		</g>
	</g>
</g>
<g id="Designed_by_Freepik">
	<title>Layer 1</title>
</g>
</svg>
