<?xml version="1.0" encoding="iso-8859-1"?>
<!-- Generator: Adobe Illustrator 19.0.0, SVG Export Plug-In . SVG Version: 6.00 Build 0)  -->
<svg version="1.1" id="Capa_1" xmlns="http://www.w3.org/2000/svg" xmlns:xlink="http://www.w3.org/1999/xlink" x="0px" y="0px"
	 viewBox="0 0 511.999 511.999" style="enable-background:new 0 0 511.999 511.999;" xml:space="preserve">
<path style="fill:#FF5D5D;" d="M420.266,468.12l16.6-16.6c14.8-14.8,14.8-38.795,0-53.596l-69.376-69.376
	c-14.8-14.8-38.795-14.8-53.596,0l-15.821,15.821c-11.43,11.43-29.962,11.43-41.392,0l-89.072-89.072
	c-11.43-11.43-11.43-29.962,0-41.392l15.821-15.821c14.8-14.8,14.8-38.795,0-53.596l-69.375-69.375c-14.8-14.8-38.795-14.8-53.596,0
	l-16.599,16.6c-45.148,45.148-45.148,118.348,0,163.496L256.77,468.12C301.919,513.268,375.118,513.268,420.266,468.12z"/>
<g>
	<path style="fill:#FFFFFF;" d="M167.381,214.147c0.078-0.079,0.15-0.162,0.229-0.241l15.821-15.821c14.8-14.8,14.8-38.795,0-53.596
		l-69.376-69.375c-14.8-14.8-38.795-14.8-53.596,0L44.405,91.17L167.381,214.147z"/>
	<path style="fill:#FFFFFF;" d="M367.49,328.549c-14.8-14.8-38.796-14.8-53.596,0l-15.821,15.821
		c-0.079,0.079-0.161,0.151-0.241,0.229l122.977,122.977l16.056-16.056c14.8-14.8,14.8-38.796,0-53.596L367.49,328.549z"/>
</g>
<path d="M374.561,321.479c-18.676-18.675-49.061-18.675-67.737,0l-15.821,15.821c-7.513,7.513-19.738,7.513-27.25,0l-89.073-89.073
	c-7.513-7.512-7.513-19.737,0-27.25l15.821-15.821c18.675-18.676,18.675-49.061,0-67.737l-69.376-69.375
	c-9.046-9.046-21.074-14.029-33.868-14.029c-12.793,0-24.822,4.983-33.868,14.029l-16.6,16.6C13.065,108.368,0,139.91,0,173.462
	s13.065,65.094,36.789,88.819l212.91,212.91c23.725,23.724,55.268,36.789,88.819,36.789s65.094-13.065,88.818-36.789l16.6-16.6
	c9.046-9.046,14.029-21.075,14.029-33.868c0-12.794-4.983-24.822-14.029-33.868L374.561,321.479z M429.795,444.45l-16.6,16.6l0,0
	c-19.947,19.946-46.467,30.933-74.677,30.933s-54.731-10.985-74.677-30.933L50.931,248.139
	c-19.947-19.946-30.933-46.468-30.933-74.677c0-25.105,8.708-48.869,24.683-67.857l73.556,73.556
	c1.953,1.953,4.512,2.929,7.07,2.929c2.559,0,5.119-0.976,7.07-2.929c3.905-3.905,3.905-10.236,0-14.142L58.537,91.178l8.993-8.993
	c5.27-5.27,12.275-8.171,19.728-8.171c7.452,0,14.458,2.902,19.728,8.171l69.376,69.375c10.878,10.877,10.878,28.577,0,39.454
	l-15.821,15.822c-7.416,7.416-11.501,17.277-11.501,27.766c0,10.489,4.085,20.349,11.501,27.767l89.073,89.073
	c7.416,7.416,17.278,11.501,27.767,11.501c6.945,0,13.61-1.801,19.477-5.164l73.397,73.397c1.953,1.953,4.512,2.929,7.07,2.929
	c2.559,0,5.119-0.977,7.07-2.929c3.905-3.905,3.905-10.236,0-14.142l-72.42-72.421l8.993-8.993
	c10.876-10.878,28.577-10.877,39.454,0l69.376,69.376c5.27,5.27,8.171,12.275,8.171,19.728S435.065,439.181,429.795,444.45z"/>
<path d="M207.661,92.122c60.076-17.651,124.876-1.141,169.106,43.091c32.296,32.295,50.063,75.234,50.032,120.907
	c-0.004,5.523,4.47,10.002,9.992,10.006c0.002,0,0.004,0,0.007,0c5.519,0,9.995-4.473,9.999-9.992
	c0.036-51.019-19.813-98.985-55.889-135.062C341.5,71.664,269.125,53.218,202.024,72.935c-5.299,1.557-8.331,7.113-6.774,12.413
	C196.806,90.645,202.363,93.678,207.661,92.122z"/>
<path d="M423.175,291.105c-0.003,0.014-0.02,0.094-0.022,0.108c-1.103,5.403,2.383,10.645,7.782,11.76
	c0.677,0.14,1.353,0.207,2.019,0.207c4.643,0,8.812-3.27,9.798-7.989c0.004-0.021,0.025-0.121,0.029-0.142
	c1.091-5.401-2.4-10.626-7.797-11.735C429.587,282.2,424.301,285.711,423.175,291.105z"/>
<path d="M507.988,210.955c-9.194-51.69-33.747-98.704-71.003-135.961C388.637,26.646,324.355,0.019,255.98,0.019
	c-14.179,0-28.45,1.184-42.417,3.52c-5.447,0.911-9.124,6.065-8.213,11.511c0.911,5.448,6.071,9.122,11.511,8.213
	c12.881-2.154,26.043-3.246,39.12-3.246c63.033,0,122.294,24.546,166.864,69.118c68.44,68.44,88.129,173.883,48.995,262.381
	c-2.234,5.051,0.05,10.956,5.101,13.189c1.315,0.582,2.688,0.857,4.039,0.857c3.838,0,7.498-2.222,9.15-5.958
	C510.797,312.867,516.973,261.465,507.988,210.955z"/>
<path d="M177.575,32.794c1.054,0,2.127-0.168,3.181-0.522l0.476-0.159c5.236-1.756,8.057-7.423,6.301-12.66
	c-1.756-5.236-7.424-8.054-12.66-6.301l-0.476,0.159c-5.236,1.756-8.057,7.423-6.301,12.66
	C169.499,30.152,173.396,32.794,177.575,32.794z"/>
<path d="M369.251,281.52c0.454,0.062,0.904,0.091,1.35,0.091c4.928,0,9.219-3.645,9.896-8.663
	c0.753-5.581,1.135-11.282,1.135-16.948c0-69.285-56.368-125.651-125.651-125.651c-6.943,0-13.912,0.572-20.709,1.7
	c-5.448,0.904-9.131,6.054-8.227,11.501c0.904,5.449,6.055,9.132,11.501,8.227c5.72-0.949,11.585-1.431,17.436-1.431
	c58.258,0,105.653,47.395,105.653,105.653c0,4.775-0.321,9.577-0.955,14.273C359.94,275.746,363.778,280.782,369.251,281.52z"/>
<g>
</g>
<g>
</g>
<g>
</g>
<g>
</g>
<g>
</g>
<g>
</g>
<g>
</g>
<g>
</g>
<g>
</g>
<g>
</g>
<g>
</g>
<g>
</g>
<g>
</g>
<g>
</g>
<g>
</g>
</svg>
